<svg width="46" height="46" viewBox="0 0 46 46" fill="none" xmlns="http://www.w3.org/2000/svg">
    <g clip-path="url(#clip0_104_235)">
        <path
            d="M34.592 34.0937C34.2326 33.7344 33.7452 33.5325 33.2369 33.5325C32.7287 33.5325 32.2413 33.7344 31.8818 34.0937L24.9167 41.0531V1.91667C24.9167 1.40834 24.7147 0.920823 24.3553 0.561379C23.9959 0.201934 23.5083 0 23 0C22.4917 0 22.0042 0.201934 21.6447 0.561379C21.2853 0.920823 21.0833 1.40834 21.0833 1.91667V41.032L14.1469 34.0937C13.9721 33.9034 13.7606 33.7505 13.5251 33.6441C13.2897 33.5377 13.0351 33.48 12.7768 33.4744C12.5185 33.4689 12.2617 33.5157 12.0219 33.6119C11.7821 33.7081 11.5643 33.8518 11.3814 34.0344C11.1986 34.217 11.0546 34.4347 10.958 34.6743C10.8614 34.914 10.8143 35.1707 10.8195 35.429C10.8246 35.6873 10.882 35.942 10.9881 36.1776C11.0942 36.4132 11.2468 36.6249 11.4368 36.8L18.9482 44.3114C19.4821 44.8455 20.116 45.2691 20.8137 45.5581C21.5114 45.8471 22.2592 45.9959 23.0144 45.9959C23.7696 45.9959 24.5174 45.8471 25.215 45.5581C25.9127 45.2691 26.5466 44.8455 27.0806 44.3114L34.592 36.8C34.9502 36.4407 35.1513 35.9541 35.1513 35.4468C35.1513 34.9395 34.9502 34.4529 34.592 34.0937Z"
            fill="#C0A9F0" />
    </g>
    <defs>
        <clipPath id="clip0_104_235">
            <rect width="46" height="46" fill="white" />
        </clipPath>
    </defs>
</svg>
    