<svg width="250" height="39" viewBox="0 0 250 39" fill="none" xmlns="http://www.w3.org/2000/svg">
    <g clip-path="url(#clip0_301_63)">
        <path
            d="M58.9653 15.8918C58.9883 16.8581 58.7885 17.8163 58.382 18.6898C58.0037 19.4706 57.4432 20.1451 56.7496 20.6541C55.9927 21.1947 55.1418 21.5837 54.2422 21.8004C53.2066 22.0588 52.1434 22.1849 51.0772 22.1756C50.0945 22.1774 49.1127 22.1174 48.1374 21.9958C47.1843 21.8757 46.2429 21.6744 45.3229 21.394V17.7467C45.7758 17.9082 46.2466 18.0593 46.7404 18.2C47.2342 18.3407 47.728 18.4605 48.2269 18.5673C48.7258 18.6741 49.2196 18.7549 49.7109 18.8279C50.1863 18.8863 50.6648 18.9158 51.1437 18.9164C51.7354 18.927 52.3262 18.8667 52.904 18.7367C53.3236 18.6427 53.7238 18.4742 54.0861 18.2391C54.3689 18.0531 54.5984 17.7942 54.7513 17.4888C54.8916 17.1877 54.9625 16.858 54.9586 16.5249C54.9726 16.084 54.8279 15.6532 54.5517 15.3134C54.2486 14.9616 53.8854 14.6686 53.4797 14.4485C52.9946 14.1793 52.4879 13.9527 51.965 13.7711C51.3996 13.5705 50.8213 13.3543 50.2354 13.1224C49.6464 12.8916 49.0691 12.6307 48.5058 12.3409C47.9513 12.0575 47.4409 11.6923 46.9911 11.2571C46.5412 10.8172 46.1782 10.2937 45.9216 9.71483C45.6404 9.02489 45.5112 8.28057 45.5429 7.53427C45.5398 6.782 45.6797 6.03623 45.9549 5.33808C46.2369 4.6314 46.6839 4.00542 47.2572 3.51443C47.9281 2.95433 48.7011 2.53467 49.5318 2.27956C50.6168 1.9531 51.7448 1.79932 52.8759 1.82365C53.2622 1.82365 53.6614 1.84189 54.081 1.87576C54.5006 1.90962 54.9151 1.95652 55.3219 2.01123C55.7287 2.06594 56.1253 2.13367 56.5039 2.20922C56.8826 2.28477 57.2306 2.36032 57.5479 2.44109V5.82786C57.2128 5.69885 56.8712 5.5884 56.5244 5.497C56.1509 5.39453 55.7645 5.30769 55.3654 5.23648C54.9662 5.16527 54.5645 5.10795 54.1603 5.06453C53.756 5.02545 53.3722 5.00461 53.0089 5.00461C52.4623 4.99437 51.9164 5.04769 51.3817 5.16353C50.996 5.24475 50.6266 5.39185 50.2891 5.5986C50.0222 5.76222 49.8065 5.99988 49.6674 6.28377C49.537 6.5655 49.4714 6.87377 49.4755 7.18517C49.4692 7.58005 49.6153 7.96168 49.8823 8.2481C50.1952 8.57426 50.5603 8.84383 50.962 9.04529C51.4539 9.29947 51.9616 9.52052 52.4818 9.70702C53.0498 9.91196 53.6315 10.1325 54.2268 10.3687C54.822 10.6056 55.4045 10.8743 55.9718 11.1738C56.5263 11.4675 57.0385 11.8374 57.4941 12.2731C57.9408 12.7117 58.3019 13.2324 58.5585 13.8076C58.8436 14.4632 58.9826 15.175 58.9653 15.8918Z"
            fill="#7421B0" />
        <path
            d="M73.8257 21.2429C73.1158 21.5349 72.3785 21.7522 71.6253 21.8916C70.8398 22.0333 70.0435 22.1039 69.2458 22.1026C68.1566 22.1186 67.0724 21.9504 66.0373 21.605C65.1373 21.3013 64.315 20.7976 63.6297 20.1305C62.9506 19.4504 62.4326 18.6219 62.115 17.7076C61.7471 16.6348 61.5695 15.5039 61.5905 14.3677C61.5747 13.2325 61.7674 12.1042 62.1585 11.0409C62.5066 10.0874 63.0525 9.22147 63.7589 8.50215C64.4653 7.78283 65.3158 7.22701 66.2522 6.87255C67.2897 6.47985 68.3897 6.2864 69.4965 6.30201C70.3196 6.29183 71.1424 6.34408 71.9579 6.45833C72.5626 6.55237 73.1608 6.6855 73.7489 6.85692V10.4208C73.116 10.1025 72.4488 9.86034 71.7609 9.69921C71.0957 9.53356 70.4141 9.44615 69.7293 9.43869C69.1154 9.42923 68.5061 9.54712 67.9383 9.78518C67.4258 10.001 66.9663 10.3293 66.5925 10.7465C66.2142 11.181 65.9292 11.6913 65.7558 12.2445C65.5579 12.8688 65.4602 13.5216 65.4667 14.1776C65.4544 14.8489 65.5574 15.5172 65.7712 16.1523C65.9606 16.7031 66.2603 17.2079 66.6514 17.6347C67.0343 18.0436 67.5007 18.362 68.0176 18.5673C68.583 18.7893 69.1849 18.8989 69.7907 18.8904C70.1245 18.8902 70.4578 18.8675 70.7886 18.8227C71.1417 18.778 71.4919 18.7127 71.8376 18.6273C72.1881 18.5413 72.5336 18.4449 72.8739 18.3355C73.2141 18.2261 73.5314 18.1036 73.8257 17.9734V21.2429Z"
            fill="#7421B0" />
        <path
            d="M87.0766 12.4868C87.1004 11.998 87.073 11.5081 86.9947 11.0252C86.9393 10.6743 86.8186 10.3374 86.6391 10.0327C86.4959 9.78918 86.2884 9.5915 86.0404 9.46212C85.7882 9.33633 85.5101 9.2738 85.2293 9.27976C84.622 9.30914 84.0419 9.54487 83.5816 9.9493C82.8522 10.5844 82.2216 11.3284 81.7112 12.1559V21.8317H78.0166V6.54168H81.2839L81.417 8.76914C81.656 8.39121 81.9358 8.04168 82.2511 7.72705C82.5574 7.41573 82.9013 7.14523 83.2745 6.92204C83.67 6.68947 84.0954 6.51411 84.5385 6.401C85.0366 6.27688 85.548 6.21649 86.0608 6.22124C86.753 6.20798 87.44 6.34381 88.077 6.61984C88.6593 6.88198 89.1678 7.28864 89.5559 7.8026C89.9831 8.38619 90.2856 9.05445 90.4437 9.76433C90.649 10.6595 90.7351 11.5787 90.6995 12.4972L87.0766 12.4868Z"
            fill="#7421B0" />
        <path
            d="M106.223 13.0261C106.223 13.2762 106.215 13.6018 106.2 14.003C106.184 14.4042 106.164 14.7846 106.133 15.1311H96.2619C96.2499 15.7375 96.3524 16.3407 96.5638 16.9078C96.7515 17.3966 97.0444 17.8364 97.421 18.1948C97.8062 18.5468 98.2593 18.813 98.7514 18.9763C99.3074 19.1591 99.8892 19.2471 100.473 19.2369C101.257 19.2329 102.04 19.1754 102.817 19.0649C103.695 18.938 104.563 18.7482 105.414 18.497V21.4252C105.03 21.5347 104.611 21.6345 104.158 21.7248C103.704 21.8152 103.241 21.8951 102.768 21.9645C102.298 22.0349 101.819 22.0896 101.336 22.1234C100.852 22.1573 100.384 22.1755 99.931 22.1755C98.8872 22.1917 97.8485 22.0243 96.8606 21.6806C95.9945 21.3742 95.2074 20.8728 94.5579 20.2138C93.9065 19.5322 93.4119 18.7118 93.1097 17.8118C92.7537 16.7471 92.5806 15.6278 92.598 14.5032C92.5877 13.3535 92.7605 12.2098 93.1097 11.1164C93.4139 10.1635 93.8951 9.27908 94.5272 8.51122C95.1355 7.78636 95.8963 7.21026 96.7532 6.82565C97.6731 6.41949 98.6674 6.21702 99.67 6.23166C100.631 6.21513 101.587 6.38671 102.484 6.73707C103.26 7.04665 103.959 7.52705 104.531 8.14389C105.095 8.76274 105.523 9.49616 105.788 10.2958C106.083 11.1743 106.23 12.0975 106.223 13.0261ZM102.556 12.505C102.575 11.9748 102.5 11.4454 102.336 10.9419C102.199 10.5327 101.98 10.1566 101.694 9.83727C101.43 9.55123 101.107 9.32949 100.747 9.18858C100.377 9.04615 99.9839 8.97461 99.5881 8.97755C99.1727 8.96366 98.7591 9.03908 98.3742 9.19889C97.9893 9.35869 97.6419 9.59929 97.3544 9.90501C96.7745 10.5198 96.4334 11.3882 96.331 12.5102L102.556 12.505Z"
            fill="#7421B0" />
        <path
            d="M121.955 13.026C121.955 13.2761 121.948 13.6018 121.932 14.003C121.917 14.4042 121.896 14.7846 121.866 15.1311H111.995C111.983 15.7375 112.085 16.3407 112.297 16.9078C112.484 17.3966 112.777 17.8364 113.154 18.1948C113.539 18.5468 113.992 18.813 114.484 18.9763C115.04 19.1591 115.622 19.2471 116.206 19.2369C116.989 19.233 117.772 19.1755 118.547 19.0649C119.424 18.938 120.291 18.7482 121.142 18.497V21.4252C120.758 21.5347 120.339 21.6345 119.885 21.7248C119.432 21.8152 118.969 21.895 118.496 21.9645C118.023 22.0349 117.547 22.0896 117.063 22.1234C116.58 22.1573 116.111 22.1755 115.659 22.1755C114.615 22.1919 113.576 22.0245 112.588 21.6806C111.722 21.3748 110.935 20.8734 110.286 20.2138C109.634 19.5322 109.14 18.7118 108.837 17.8118C108.481 16.7471 108.308 15.6278 108.326 14.5032C108.315 13.3535 108.488 12.2098 108.837 11.1164C109.14 10.163 109.622 9.27827 110.255 8.51122C110.863 7.787 111.623 7.21099 112.478 6.82565C113.396 6.4133 114.389 6.20375 115.393 6.21082C116.354 6.19429 117.309 6.36587 118.207 6.71623C118.983 7.02581 119.682 7.50621 120.254 8.12305C120.826 8.73971 121.262 9.47329 121.533 10.2749C121.826 11.1609 121.969 12.0912 121.955 13.026ZM118.289 12.505C118.307 11.9748 118.233 11.4454 118.069 10.9419C117.931 10.5322 117.712 10.156 117.424 9.83727C117.162 9.5508 116.839 9.32895 116.48 9.18858C116.109 9.0459 115.715 8.97435 115.318 8.97755C114.906 8.96055 114.494 9.03175 114.111 9.18656C113.727 9.34136 113.379 9.57634 113.09 9.87635C112.51 10.4912 112.169 11.3596 112.066 12.4816L118.289 12.505Z"
            fill="#7421B0" />
        <path
            d="M133.558 21.8317V11.8693C133.558 10.1951 132.948 9.35705 131.727 9.35531C131.071 9.37424 130.447 9.64292 129.976 10.1082C129.318 10.7256 128.726 11.412 128.208 12.1559V21.8317H124.603V6.54168H127.722L127.809 8.8004C128.104 8.42216 128.422 8.06444 128.764 7.72966C129.087 7.41398 129.447 7.13931 129.836 6.91162C130.225 6.68359 130.642 6.50843 131.077 6.39058C131.564 6.26514 132.066 6.20472 132.568 6.21082C133.258 6.19484 133.944 6.32526 134.582 6.59379C135.135 6.83747 135.626 7.20843 136.015 7.67755C136.416 8.17243 136.712 8.74627 136.885 9.36312C137.085 10.0797 137.182 10.8221 137.174 11.5671V21.8317H133.558Z"
            fill="#7421B0" />
        <path
            d="M152.725 17.3325C152.748 18.1165 152.551 18.891 152.157 19.5651C151.778 20.181 151.262 20.6969 150.65 21.071C149.991 21.4697 149.272 21.7541 148.521 21.9124C147.723 22.0884 146.908 22.1757 146.09 22.173C145.093 22.1788 144.096 22.1266 143.105 22.0166C142.258 21.9187 141.419 21.7646 140.592 21.5555V18.2495C141.484 18.6303 142.413 18.9149 143.363 19.0988C144.222 19.268 145.095 19.3552 145.97 19.3593C146.917 19.3593 147.623 19.2082 148.091 18.9008C148.301 18.7845 148.477 18.6134 148.601 18.4051C148.724 18.1968 148.791 17.9588 148.795 17.7154C148.797 17.4953 148.746 17.2781 148.647 17.0824C148.51 16.8548 148.319 16.6665 148.091 16.5353C147.729 16.3149 147.346 16.1333 146.948 15.9934C146.453 15.8058 145.807 15.5974 145.011 15.3681C144.344 15.1848 143.694 14.9452 143.066 14.6517C142.558 14.4193 142.091 14.1023 141.685 13.7138C141.326 13.3594 141.047 12.9301 140.866 12.4555C140.673 11.9183 140.581 11.3494 140.592 10.7778C140.59 10.1654 140.732 9.56143 141.007 9.01664C141.3 8.43808 141.722 7.93753 142.24 7.55512C142.858 7.10344 143.551 6.76978 144.287 6.57035C145.221 6.3132 146.187 6.19129 147.155 6.20822C147.995 6.20133 148.834 6.25181 149.667 6.35932C150.394 6.45832 151.041 6.57035 151.602 6.69019V9.68618C150.813 9.42303 150.006 9.2244 149.186 9.09219C148.445 8.97854 147.697 8.92107 146.948 8.92025C146.326 8.88934 145.707 9.02974 145.157 9.32666C144.952 9.43209 144.781 9.59359 144.662 9.79293C144.543 9.99227 144.481 10.2215 144.484 10.4547C144.48 10.6683 144.525 10.8799 144.617 11.0722C144.741 11.2873 144.917 11.4667 145.128 11.5932C145.476 11.8016 145.841 11.9761 146.221 12.1142C146.688 12.3001 147.307 12.5033 148.076 12.7239C148.834 12.9349 149.574 13.2103 150.287 13.5471C150.816 13.7863 151.302 14.1139 151.725 14.5162C152.07 14.8622 152.333 15.2848 152.492 15.7511C152.655 16.2614 152.734 16.7959 152.725 17.3325Z"
            fill="#7421B0" />
        <path
            d="M165.029 21.8317V11.8693C165.029 10.1951 164.419 9.35705 163.197 9.35532C162.542 9.37525 161.918 9.64379 161.447 10.1082C160.79 10.7264 160.199 11.4127 159.682 12.1559V21.8317H156.074V0.567944H159.679V5.80442L159.503 8.57375C159.787 8.21927 160.095 7.88502 160.424 7.57335C160.733 7.2821 161.077 7.03175 161.447 6.82826C161.82 6.62443 162.218 6.47033 162.629 6.36975C163.089 6.25926 163.561 6.2059 164.034 6.21083C164.726 6.19373 165.413 6.32418 166.053 6.59379C166.607 6.8368 167.099 7.20783 167.488 7.67756C167.888 8.17266 168.183 8.74649 168.355 9.36313C168.555 10.0799 168.651 10.8222 168.642 11.5671V21.8317H165.029Z"
            fill="#7421B0" />
        <path
            d="M185.329 14.0681C185.339 15.1905 185.166 16.3068 184.817 17.3715C184.512 18.3187 184.019 19.192 183.369 19.9377C182.728 20.6585 181.935 21.2238 181.051 21.592C180.055 21.9978 178.989 22.1971 177.917 22.1782C176.901 22.195 175.889 22.0274 174.931 21.6832C174.086 21.3705 173.324 20.8622 172.705 20.1982C172.064 19.4909 171.585 18.6485 171.3 17.7311C170.957 16.6136 170.793 15.4472 170.814 14.2766C170.801 13.1514 170.974 12.0319 171.326 10.9653C171.636 10.0239 172.134 9.15819 172.789 8.42265C173.438 7.71179 174.232 7.15424 175.115 6.78919C176.103 6.39021 177.159 6.19367 178.221 6.21083C179.243 6.19408 180.258 6.3653 181.22 6.71624C182.067 7.03213 182.831 7.54403 183.451 8.21163C184.089 8.92043 184.566 9.76365 184.848 10.6814C185.185 11.7768 185.348 12.9203 185.329 14.0681ZM181.576 14.1593C181.576 12.5719 181.282 11.3804 180.695 10.585C180.109 9.78952 179.244 9.38745 178.101 9.37876C177.542 9.36182 176.988 9.49098 176.492 9.75391C176.049 10.0056 175.673 10.3632 175.397 10.796C175.098 11.262 174.886 11.7793 174.77 12.3227C174.633 12.9346 174.566 13.5605 174.57 14.188C174.57 15.7841 174.885 16.986 175.514 17.7936C175.821 18.1894 176.215 18.5056 176.665 18.7162C177.114 18.9268 177.607 19.0258 178.101 19.005C178.646 19.0176 179.185 18.8904 179.669 18.6351C180.109 18.3931 180.479 18.0406 180.747 17.6112C181.039 17.1372 181.249 16.6155 181.368 16.0689C181.511 15.442 181.58 14.8002 181.576 14.1567V14.1593Z"
            fill="#7421B0" />
        <path
            d="M199.923 21.6806C199.273 21.8317 198.618 21.9515 197.958 22.0401C197.336 22.1281 196.709 22.1734 196.08 22.1756C195.217 22.1931 194.356 22.087 193.522 21.8603C192.866 21.6816 192.259 21.3518 191.749 20.8964C191.269 20.4482 190.912 19.8808 190.712 19.2499C190.476 18.4778 190.364 17.672 190.38 16.8635V9.40221H186.358V6.53648H190.39V2.62866L194.085 1.65171V6.54169H199.923V9.40742H194.085V16.5978C194.085 17.4662 194.282 18.1262 194.676 18.5778C195.07 19.0293 195.73 19.2525 196.656 19.2473C197.236 19.2488 197.815 19.1982 198.386 19.0962C198.903 19.0076 199.415 18.8919 199.921 18.7497L199.923 21.6806Z"
            fill="#7421B0" />
        <path
            d="M216.349 13.0261C216.349 13.2762 216.342 13.6018 216.326 14.003C216.326 14.4042 216.291 14.7846 216.26 15.1311H206.389C206.378 15.7377 206.481 16.3409 206.693 16.9078C206.879 17.3976 207.172 17.8378 207.55 18.1948C207.934 18.5473 208.387 18.8136 208.878 18.9763C209.434 19.1591 210.016 19.2471 210.6 19.2369C211.384 19.2329 212.167 19.1754 212.944 19.0649C213.82 18.9377 214.686 18.748 215.536 18.497V21.4252C215.152 21.5347 214.735 21.6337 214.28 21.7248C213.824 21.816 213.364 21.8968 212.893 21.9645C212.422 22.0323 211.941 22.0896 211.457 22.1234C210.974 22.1573 210.508 22.1755 210.055 22.1755C209.012 22.1916 207.973 22.0242 206.985 21.6806C206.119 21.3742 205.332 20.8728 204.682 20.2138C204.032 19.5315 203.537 18.7113 203.234 17.8118C202.878 16.7471 202.705 15.6278 202.722 14.5032C202.712 13.3535 202.885 12.2098 203.234 11.1164C203.538 10.1628 204.02 9.27813 204.654 8.51122C205.261 7.78583 206.021 7.20959 206.878 6.82565C207.798 6.41951 208.793 6.21706 209.797 6.23167C210.758 6.21507 211.714 6.38665 212.611 6.73708C213.387 7.04764 214.085 7.52791 214.658 8.14389C215.22 8.76411 215.648 9.49712 215.915 10.2958C216.209 11.1747 216.356 12.0976 216.349 13.0261ZM212.686 12.505C212.705 11.9746 212.629 11.445 212.463 10.9419C212.327 10.5322 212.108 10.156 211.821 9.83728C211.558 9.55075 211.234 9.32893 210.874 9.18858C210.504 9.04593 210.111 8.97438 209.715 8.97756C209.3 8.96371 208.887 9.03916 208.502 9.19897C208.118 9.35878 207.771 9.59937 207.484 9.90501C206.901 10.5198 206.558 11.39 206.46 12.5102L212.686 12.505Z"
            fill="#7421B0" />
        <path
            d="M228.669 12.4868C228.694 11.998 228.667 11.5079 228.587 11.0252C228.53 10.674 228.408 10.3371 228.226 10.0327C228.083 9.78989 227.877 9.59235 227.63 9.46212C227.377 9.33706 227.098 9.27458 226.817 9.27976C226.209 9.30914 225.629 9.54486 225.169 9.94929C224.44 10.5844 223.809 11.3284 223.299 12.1559V21.8317H219.609V6.54168H222.876L223.009 8.76913C223.248 8.39121 223.528 8.04168 223.844 7.72705C224.15 7.41572 224.494 7.14523 224.867 6.92204C225.263 6.68989 225.688 6.51455 226.131 6.401C226.629 6.27688 227.14 6.21649 227.653 6.22124C228.346 6.208 229.034 6.34383 229.672 6.61984C230.254 6.88206 230.761 7.28874 231.148 7.8026C231.576 8.38567 231.879 9.05412 232.036 9.76432C232.241 10.6595 232.328 11.5787 232.292 12.4972L228.669 12.4868Z"
            fill="#7421B0" />
        <path
            d="M244.489 15.1493V21.0032H241.163V15.1493H235.646V12.1246H241.158V6.302H244.484V12.1246H250V15.1493H244.489Z"
            fill="#7421B0" />
        <path
            d="M49.8414 35.8034C49.8443 35.8581 49.8443 35.9129 49.8414 35.9675C49.8392 36.009 49.8323 36.0501 49.8209 36.09C49.8132 36.1228 49.8012 36.1543 49.7851 36.1838C49.7616 36.2198 49.7341 36.253 49.7032 36.2828C49.6289 36.3497 49.5484 36.409 49.4627 36.4599C49.3183 36.5521 49.1658 36.6306 49.0073 36.6944C48.8042 36.7769 48.5945 36.8414 48.3804 36.8872C48.128 36.9409 47.8707 36.9671 47.6129 36.9653C47.1663 36.9724 46.7228 36.8891 46.308 36.7204C45.9259 36.5615 45.5859 36.3134 45.3152 35.9962C45.0253 35.6506 44.81 35.2467 44.6833 34.8108C44.5268 34.2857 44.4517 33.739 44.4607 33.1904C44.452 32.6218 44.5323 32.0555 44.6986 31.5126C44.8392 31.055 45.067 30.63 45.369 30.2621C45.6473 29.9257 45.9973 29.6584 46.3924 29.4806C46.8122 29.2998 47.2646 29.211 47.7203 29.22C47.9308 29.2196 48.1408 29.2405 48.3472 29.2826C48.5378 29.3217 48.7258 29.373 48.9101 29.4363C49.0693 29.494 49.2227 29.5673 49.3681 29.6551C49.4684 29.7107 49.562 29.778 49.6469 29.8557C49.6844 29.8918 49.7179 29.932 49.7467 29.9756C49.7635 30.0059 49.7764 30.0383 49.7851 30.0719C49.7965 30.1155 49.8042 30.1599 49.8081 30.2048C49.8112 30.2647 49.8112 30.3247 49.8081 30.3846C49.8126 30.4505 49.8126 30.5166 49.8081 30.5826C49.8021 30.63 49.7901 30.6764 49.7723 30.7206C49.7606 30.7521 49.7422 30.7805 49.7186 30.804C49.6956 30.8211 49.6678 30.8303 49.6393 30.8301C49.5549 30.815 49.4766 30.7752 49.4141 30.7154C49.2953 30.6216 49.1715 30.5346 49.0431 30.4549C48.867 30.3495 48.681 30.2622 48.4879 30.1944C48.2348 30.113 47.9703 30.0742 47.705 30.0798C47.3926 30.0757 47.0834 30.1452 46.8018 30.283C46.5269 30.4197 46.2888 30.6227 46.1084 30.8744C45.9025 31.1622 45.7507 31.4863 45.6607 31.8305C45.5475 32.2548 45.494 32.6934 45.502 33.1331C45.4962 33.5618 45.547 33.9894 45.653 34.4044C45.7379 34.7394 45.8875 35.0538 46.0931 35.3293C46.2773 35.5725 46.5183 35.765 46.7941 35.8894C47.0909 36.0208 47.4121 36.0856 47.7357 36.0796C47.9956 36.0838 48.2545 36.0469 48.5033 35.9701C48.6998 35.9027 48.8892 35.8154 49.0687 35.7096C49.2248 35.6184 49.3527 35.5351 49.4525 35.4621C49.5191 35.4016 49.602 35.3626 49.6904 35.3501C49.7165 35.3481 49.7425 35.3557 49.7636 35.3715C49.7847 35.3872 49.7996 35.4101 49.8056 35.4361C49.8202 35.4798 49.8289 35.5254 49.8312 35.5715C49.8363 35.6393 49.8414 35.7122 49.8414 35.8034Z"
            fill="#484848" />
        <path
            d="M54.9023 36.7673C54.9021 36.7899 54.8949 36.8117 54.8818 36.8299C54.8614 36.8506 54.8357 36.865 54.8076 36.8715C54.7611 36.8861 54.713 36.8948 54.6643 36.8976C54.5885 36.9023 54.5125 36.9023 54.4366 36.8976C54.3514 36.9024 54.266 36.9024 54.1808 36.8976C54.1254 36.8921 54.0706 36.8817 54.017 36.8663C53.9827 36.8567 53.9511 36.8389 53.9249 36.8142C53.9064 36.7931 53.8925 36.7682 53.884 36.7413L53.3339 35.3788C53.2729 35.2217 53.1993 35.0701 53.1138 34.9255C53.0418 34.8068 52.949 34.7026 52.8401 34.618C52.7349 34.5394 52.6159 34.4819 52.4895 34.4487C52.343 34.4124 52.1926 34.3949 52.0418 34.3966H51.6401V36.7647C51.6383 36.7868 51.6282 36.8073 51.6119 36.822C51.5876 36.8453 51.5575 36.8615 51.5249 36.8689C51.4765 36.8832 51.4268 36.8928 51.3765 36.8976C51.3058 36.902 51.2349 36.902 51.1642 36.8976C51.0935 36.9021 51.0225 36.9021 50.9518 36.8976C50.9008 36.8927 50.8502 36.8832 50.8009 36.8689C50.7693 36.8628 50.7406 36.8463 50.719 36.822C50.7034 36.8071 50.6942 36.7865 50.6934 36.7647V31.4188C50.6935 31.408 50.6959 31.3973 50.7003 31.3874C50.7047 31.3776 50.7111 31.3688 50.719 31.3615C50.7428 31.3409 50.7708 31.3258 50.8009 31.3172C50.8506 31.3053 50.901 31.2966 50.9518 31.2912C51.0132 31.2912 51.0823 31.2912 51.1642 31.2912C51.2461 31.2912 51.3151 31.2912 51.3765 31.2912C51.4265 31.2966 51.4761 31.3053 51.5249 31.3172C51.5561 31.3272 51.5855 31.3421 51.6119 31.3615C51.6202 31.3686 51.627 31.3774 51.6318 31.3872C51.6367 31.3971 51.6395 31.4078 51.6401 31.4188V33.6229H52.0418C52.1763 33.6234 52.3104 33.6068 52.4409 33.5734C52.56 33.5401 52.672 33.4844 52.771 33.4092C52.873 33.3266 52.9597 33.226 53.0268 33.1122C53.1146 32.9747 53.1875 32.828 53.2443 32.6746L53.7253 31.4657C53.7321 31.435 53.7461 31.4063 53.7663 31.3824C53.7889 31.356 53.8181 31.3362 53.8507 31.3251C53.9003 31.3073 53.9519 31.2959 54.0042 31.2912C54.0682 31.2912 54.1501 31.2912 54.2601 31.2912C54.3701 31.2912 54.429 31.2912 54.4878 31.2912C54.5344 31.2962 54.5806 31.3049 54.626 31.3172C54.6515 31.3259 54.6744 31.3412 54.6925 31.3615C54.7034 31.3787 54.7095 31.3985 54.7104 31.4188C54.71 31.4558 54.7048 31.4926 54.695 31.5283C54.6833 31.5743 54.6688 31.6195 54.6515 31.6637L54.1552 32.8257C54.0879 32.9988 54.0021 33.164 53.8993 33.318C53.8197 33.437 53.728 33.547 53.6256 33.6463C53.5418 33.7281 53.447 33.7974 53.3441 33.8521C53.2554 33.8983 53.1629 33.9366 53.0678 33.9667C53.1964 34.0111 53.3207 34.0678 53.4388 34.1361C53.5535 34.2047 53.6593 34.2878 53.7535 34.3836C53.8578 34.4877 53.9497 34.604 54.0273 34.7301C54.119 34.8782 54.1977 35.0342 54.2626 35.1964L54.8306 36.5277C54.8447 36.5518 54.8567 36.577 54.8665 36.6032C54.8737 36.6252 54.8789 36.6479 54.8818 36.6709C54.8818 36.6944 54.8818 36.71 54.8818 36.7231C54.8818 36.7361 54.9023 36.7569 54.9023 36.7673Z"
            fill="#484848" />
        <path
            d="M60.544 34.0136C60.5491 34.4317 60.5 34.8487 60.3981 35.2537C60.3147 35.5897 60.1688 35.9063 59.9683 36.1864C59.7828 36.4366 59.5417 36.6384 59.2647 36.7752C58.9645 36.9179 58.6364 36.9891 58.3052 36.9836C58.1623 36.9847 58.0198 36.969 57.8805 36.9367C57.7479 36.9044 57.6199 36.8554 57.4993 36.7908C57.3669 36.7175 57.2425 36.6302 57.1283 36.5303C57.0054 36.4313 56.8724 36.3114 56.7368 36.176V38.8176C56.7371 38.8463 56.7291 38.8744 56.7138 38.8984C56.6946 38.924 56.669 38.9438 56.6396 38.9557C56.5937 38.9747 56.5455 38.9869 56.4963 38.9922C56.4179 38.9969 56.3393 38.9969 56.2609 38.9922C56.1842 38.9968 56.1073 38.9968 56.0306 38.9922C55.9806 38.9869 55.9315 38.9746 55.8848 38.9557C55.8546 38.9454 55.8285 38.9252 55.8106 38.8984C55.796 38.8741 55.7889 38.846 55.7901 38.8176V31.4657C55.7882 31.4359 55.7944 31.4062 55.808 31.3798C55.8242 31.354 55.8486 31.3346 55.8771 31.3251C55.9188 31.3076 55.9628 31.2962 56.0076 31.2912C56.0613 31.2912 56.1253 31.2912 56.202 31.2912C56.2788 31.2912 56.3504 31.2912 56.4016 31.2912C56.4456 31.2965 56.4886 31.3079 56.5295 31.3251C56.5583 31.3355 56.5833 31.3546 56.6012 31.3798C56.6169 31.4054 56.6241 31.4356 56.6217 31.4657V32.1717C56.7652 32.0214 56.9164 31.8788 57.0745 31.7445C57.2114 31.6304 57.3588 31.5301 57.5146 31.4449C57.6581 31.3665 57.8101 31.3053 57.9675 31.2625C58.128 31.2212 58.2931 31.201 58.4587 31.2026C58.7919 31.1919 59.1221 31.2682 59.4182 31.4241C59.6798 31.569 59.9021 31.7776 60.0655 32.0311C60.2384 32.3062 60.3614 32.6106 60.4288 32.9299C60.5072 33.2855 60.5459 33.6491 60.544 34.0136ZM59.5615 34.1257C59.5617 33.864 59.542 33.6027 59.5026 33.3441C59.4676 33.1111 59.3968 32.8851 59.2928 32.6746C59.2023 32.4877 59.0668 32.3272 58.8988 32.2082C58.7153 32.0856 58.499 32.0237 58.2796 32.0311C58.1563 32.0306 58.0337 32.0499 57.9163 32.0884C57.787 32.1291 57.6639 32.1878 57.5504 32.2629C57.4125 32.3559 57.2832 32.4614 57.1641 32.5782C57.012 32.7297 56.8693 32.8907 56.7368 33.0601V35.1443C56.9529 35.4231 57.2031 35.6726 57.4813 35.8868C57.6941 36.0519 57.9533 36.1432 58.2208 36.1473C58.4389 36.1541 58.654 36.0932 58.8374 35.9727C59.0112 35.8534 59.1536 35.6923 59.2519 35.5038C59.3626 35.2993 59.442 35.0788 59.4873 34.8499C59.5356 34.6125 59.5605 34.3707 59.5615 34.1283V34.1257Z"
            fill="#484848" />
        <path
            d="M66.2139 36.7335C66.2137 36.7604 66.2057 36.7867 66.1908 36.809C66.1728 36.8352 66.1467 36.8544 66.1166 36.8637C66.0702 36.8796 66.0221 36.8901 65.9734 36.895C65.8967 36.8998 65.8198 36.8998 65.7431 36.895C65.6673 36.8999 65.5912 36.8999 65.5154 36.895C65.4641 36.8897 65.4136 36.8793 65.3644 36.8637C65.3327 36.8551 65.3047 36.8358 65.2851 36.809C65.2702 36.7867 65.2622 36.7604 65.2621 36.7335V33.7036C65.2621 33.5525 65.2621 33.3962 65.2621 33.2399C65.2621 33.0836 65.28 32.9273 65.2928 32.7735C65.2032 32.9299 65.106 33.0836 65.0011 33.2321C64.8962 33.3806 64.7887 33.5317 64.6838 33.6802L62.4988 36.7335L62.4271 36.8142C62.4055 36.8388 62.3783 36.8576 62.3478 36.8689C62.3087 36.8851 62.2672 36.8948 62.225 36.8976C62.1637 36.9021 62.1021 36.9021 62.0408 36.8976C61.9718 36.9025 61.9025 36.9025 61.8335 36.8976C61.789 36.892 61.7453 36.8816 61.703 36.8663C61.677 36.8566 61.6546 36.8387 61.639 36.8154C61.6234 36.792 61.6154 36.7643 61.6161 36.7361V31.4579C61.6153 31.4312 61.6224 31.4049 61.6365 31.3824C61.6538 31.3549 61.6801 31.3346 61.7107 31.325C61.7576 31.3072 61.8067 31.2958 61.8566 31.2912C61.918 31.2912 61.9922 31.2912 62.0817 31.2912C62.2095 31.2842 62.3375 31.2992 62.4604 31.3355C62.4889 31.3432 62.5142 31.36 62.5326 31.3835C62.551 31.4069 62.5616 31.4357 62.5627 31.4657V34.5138C62.5627 34.6649 62.5627 34.816 62.5627 34.9645C62.5627 35.113 62.5448 35.2641 62.532 35.4126C62.6216 35.2641 62.7111 35.1208 62.7879 34.9775C62.8647 34.8343 62.9747 34.6962 63.077 34.5607L65.3004 31.4657C65.3208 31.4365 65.3439 31.4095 65.3695 31.385C65.3964 31.3608 65.4277 31.3422 65.4616 31.3303C65.5038 31.3147 65.5476 31.3042 65.5921 31.299C65.6407 31.299 65.7073 31.299 65.7866 31.299C65.8659 31.299 65.935 31.299 65.9913 31.299C66.037 31.3037 66.0818 31.3151 66.1243 31.3329C66.1516 31.3448 66.1748 31.3647 66.1908 31.3902C66.2056 31.4153 66.2127 31.4443 66.2113 31.4735L66.2139 36.7335Z"
            fill="#484848" />
        <path
            d="M72.1523 36.7335C72.1529 36.7621 72.1449 36.7903 72.1293 36.8142C72.1092 36.8383 72.0838 36.8571 72.0551 36.8689C72.0091 36.8868 71.9609 36.8982 71.9118 36.9028C71.8351 36.9076 71.7582 36.9076 71.6815 36.9028C71.6031 36.9077 71.5245 36.9077 71.4461 36.9028C71.397 36.8986 71.3488 36.8872 71.3029 36.8689C71.2734 36.8585 71.2476 36.8395 71.2287 36.8142C71.2119 36.7909 71.2037 36.7623 71.2056 36.7335V34.4252H68.5703V36.7335C68.5705 36.7617 68.5635 36.7896 68.5498 36.8142C68.5288 36.8383 68.5025 36.8571 68.4731 36.8689C68.4272 36.8872 68.3789 36.8986 68.3298 36.9028C68.2514 36.9077 68.1728 36.9077 68.0944 36.9028C68.0177 36.9076 67.9408 36.9076 67.8641 36.9028C67.8142 36.8982 67.7652 36.8868 67.7183 36.8689C67.6895 36.8611 67.6642 36.8433 67.647 36.8186C67.6297 36.7938 67.6214 36.7637 67.6236 36.7335V31.4657C67.623 31.4374 67.6301 31.4095 67.6441 31.385C67.6635 31.3596 67.6891 31.3399 67.7183 31.3277C67.7646 31.3076 67.8139 31.2952 67.8641 31.2912C67.9255 31.2912 68.0023 31.2912 68.0944 31.2912C68.1891 31.2912 68.2684 31.2912 68.3298 31.2912C68.3792 31.2948 68.4277 31.3072 68.4731 31.3277C68.5022 31.3413 68.5283 31.3608 68.5498 31.385C68.5638 31.4095 68.5709 31.4374 68.5703 31.4657V33.6072H71.2082V31.4683C71.206 31.4395 71.2142 31.4108 71.2312 31.3876C71.2506 31.3622 71.2762 31.3425 71.3054 31.3303C71.3507 31.3098 71.3992 31.2974 71.4487 31.2938C71.5101 31.2938 71.5869 31.2938 71.6841 31.2938C71.7813 31.2938 71.853 31.2938 71.9144 31.2938C71.9638 31.2978 72.0122 31.3101 72.0576 31.3303C72.086 31.3439 72.1113 31.3634 72.1318 31.3876C72.1477 31.4113 72.1558 31.4396 72.1549 31.4683L72.1523 36.7335Z"
            fill="#484848" />
        <path
            d="M80.3628 36.5329C80.3672 36.5795 80.3624 36.6265 80.3488 36.6712C80.3352 36.7159 80.313 36.7575 80.2835 36.7934C80.2559 36.8217 80.2227 36.8438 80.1861 36.8581C80.1495 36.8725 80.1103 36.8789 80.0712 36.8768H73.8461C73.8065 36.8796 73.7667 36.8736 73.7296 36.8592C73.6925 36.8448 73.6589 36.8223 73.6312 36.7934C73.5736 36.7199 73.5461 36.6265 73.5544 36.5329V31.4657C73.5526 31.4373 73.5597 31.409 73.5749 31.385C73.5947 31.359 73.6213 31.3391 73.6516 31.3277C73.699 31.308 73.7491 31.2957 73.8 31.2912C73.8615 31.2912 73.9382 31.2912 74.0303 31.2912C74.1224 31.2912 74.1992 31.2912 74.2606 31.2912C74.31 31.2952 74.3584 31.3075 74.4039 31.3277C74.4323 31.3413 74.4575 31.3608 74.4781 31.385C74.494 31.4087 74.502 31.437 74.5011 31.4657V36.0431H76.5019V31.4657C76.5001 31.4373 76.5072 31.409 76.5224 31.385C76.5408 31.3596 76.5655 31.3398 76.594 31.3277C76.6377 31.3075 76.6844 31.2951 76.7322 31.2912C76.7885 31.2912 76.8652 31.2912 76.9599 31.2912C77.0546 31.2912 77.1237 31.2912 77.1851 31.2912C77.2345 31.2952 77.2829 31.3075 77.3283 31.3277C77.3567 31.3413 77.382 31.3608 77.4025 31.385C77.4184 31.4087 77.4265 31.437 77.4256 31.4657V36.0431H79.4238V31.4657C79.4232 31.4374 79.4303 31.4095 79.4443 31.385C79.4637 31.3596 79.4893 31.3399 79.5185 31.3277C79.5641 31.3078 79.6124 31.2955 79.6618 31.2912C79.7206 31.2912 79.7974 31.2912 79.8895 31.2912C79.9816 31.2912 80.0635 31.2912 80.1249 31.2912C80.1751 31.2952 80.2244 31.3076 80.2707 31.3277C80.3002 31.3406 80.3265 31.3602 80.3475 31.385C80.3634 31.4087 80.3714 31.437 80.3705 31.4657L80.3628 36.5329Z"
            fill="#484848" />
        <path
            d="M86.5751 34.0371C86.5788 34.4376 86.5227 34.8364 86.4088 35.2198C86.3039 35.5636 86.1296 35.8813 85.8971 36.1525C85.6723 36.4194 85.3893 36.6291 85.0706 36.7647C84.7057 36.9175 84.3138 36.992 83.9193 36.9836C83.5405 36.9914 83.1637 36.926 82.8089 36.7908C82.5053 36.6708 82.2343 36.4787 82.0182 36.2307C81.801 35.9691 81.6405 35.6637 81.5475 35.3345C81.4399 34.9464 81.3882 34.5445 81.394 34.1413C81.3896 33.7409 81.4449 33.3421 81.5577 32.9585C81.6566 32.616 81.8248 32.2983 82.0515 32.0259C82.2827 31.7582 82.5729 31.5501 82.8984 31.4188C83.2643 31.2666 83.6572 31.193 84.0523 31.2026C84.4312 31.1935 84.8083 31.2589 85.1628 31.3954C85.4666 31.5149 85.7377 31.707 85.9534 31.9555C86.1714 32.216 86.3327 32.5205 86.4267 32.8491C86.5332 33.2355 86.5832 33.6358 86.5751 34.0371ZM85.5926 34.1022C85.5945 33.8309 85.5679 33.5601 85.5133 33.2946C85.468 33.0584 85.3813 32.8325 85.2574 32.6277C85.1355 32.4363 84.9672 32.2801 84.7687 32.1744C84.5338 32.0688 84.2797 32.0142 84.0229 32.0142C83.7661 32.0142 83.5121 32.0688 83.2771 32.1744C83.0737 32.2714 82.8976 32.4193 82.7654 32.6042C82.6288 32.8027 82.5299 33.0253 82.4737 33.2607C82.408 33.5326 82.3762 33.8118 82.379 34.0918C82.3777 34.3647 82.4034 34.637 82.4558 34.9046C82.5007 35.1392 82.5874 35.3635 82.7116 35.5663C82.8336 35.757 83.0019 35.9123 83.2003 36.017C83.4387 36.1365 83.7024 36.1938 83.9679 36.1838C84.2174 36.1904 84.4651 36.1387 84.692 36.0327C84.8949 35.9359 85.0708 35.789 85.2037 35.6054C85.3417 35.4088 85.4408 35.1867 85.4954 34.9515C85.5616 34.6735 85.5943 34.3883 85.5926 34.1022Z"
            fill="#484848" />
        <path
            d="M91.1473 31.7523C91.1517 31.8182 91.1517 31.8844 91.1473 31.9503C91.1422 31.9965 91.1292 32.0415 91.1089 32.0832C91.0956 32.1143 91.0754 32.1419 91.0501 32.1639C91.0243 32.1813 90.994 32.1904 90.9631 32.19H89.4126V36.7335C89.4132 36.7622 89.4051 36.7903 89.3895 36.8142C89.3695 36.8383 89.3441 36.8571 89.3153 36.8689C89.2693 36.8868 89.2211 36.8982 89.1721 36.9028C89.0937 36.9077 89.0151 36.9077 88.9367 36.9028C88.86 36.9076 88.7831 36.9076 88.7064 36.9028C88.6565 36.8982 88.6075 36.8868 88.5606 36.8689C88.5311 36.8585 88.5053 36.8395 88.4864 36.8142C88.4715 36.7901 88.4644 36.7619 88.4659 36.7335V32.19H86.9154C86.8854 32.1893 86.8562 32.1803 86.831 32.1639C86.8041 32.1434 86.7837 32.1153 86.7721 32.0832C86.7542 32.0397 86.7413 31.9942 86.7337 31.9477C86.7237 31.8805 86.7194 31.8125 86.7209 31.7445C86.7196 31.6817 86.7238 31.6189 86.7337 31.5569C86.7413 31.5101 86.755 31.4645 86.7747 31.4214C86.7874 31.3892 86.8076 31.3607 86.8335 31.3381C86.8577 31.3214 86.8862 31.3123 86.9154 31.312H90.9631C90.993 31.3127 91.0222 31.3217 91.0475 31.3381C91.0742 31.3599 91.0945 31.3888 91.1064 31.4214C91.1242 31.4668 91.137 31.5139 91.1447 31.5621C91.1513 31.6253 91.1521 31.689 91.1473 31.7523Z"
            fill="#484848" />
        <path
            d="M98.6363 36.7335C98.6362 36.7604 98.6282 36.7867 98.6133 36.809C98.5947 36.8346 98.5688 36.8538 98.5391 36.8637C98.4926 36.8793 98.4445 36.8898 98.3958 36.895C98.2428 36.9123 98.0883 36.9123 97.9352 36.895C97.8849 36.8895 97.8352 36.879 97.7869 36.8637C97.7548 36.8559 97.7266 36.8365 97.7075 36.809C97.6915 36.7873 97.6834 36.7606 97.6845 36.7335V33.7036C97.6845 33.5525 97.6845 33.3962 97.6845 33.2399C97.6845 33.0836 97.7024 32.9273 97.7127 32.7735C97.6244 32.9316 97.5279 33.0846 97.4235 33.2321C97.3186 33.3832 97.2112 33.5317 97.1037 33.6802L94.9238 36.7335L94.8521 36.8142C94.83 36.8382 94.8029 36.8569 94.7728 36.8689C94.7329 36.8854 94.6905 36.8951 94.6475 36.8976C94.587 36.9022 94.5263 36.9022 94.4658 36.8976C94.3968 36.9025 94.3275 36.9025 94.2585 36.8976C94.2141 36.8921 94.1703 36.8816 94.1281 36.8663C94.0994 36.8569 94.075 36.8376 94.059 36.8116C94.046 36.7886 94.0389 36.7626 94.0385 36.7361V31.4579C94.0389 31.4314 94.046 31.4054 94.059 31.3824C94.0769 31.3555 94.103 31.3354 94.1332 31.3251C94.1811 31.3075 94.2309 31.2961 94.2816 31.2912C94.343 31.2912 94.4172 31.2912 94.5042 31.2912C94.6319 31.284 94.76 31.299 94.8828 31.3355C94.9116 31.3431 94.9372 31.3598 94.9561 31.3832C94.9749 31.4066 94.986 31.4355 94.9877 31.4657V34.5138C94.9877 34.6649 94.9878 34.816 94.975 34.9645C94.9622 35.113 94.9596 35.2641 94.9468 35.4126C95.0338 35.2641 95.1234 35.1208 95.2027 34.9776C95.282 34.8343 95.3895 34.6962 95.4944 34.5607L97.7152 31.4657C97.7371 31.4371 97.7611 31.4101 97.7869 31.385C97.8137 31.3608 97.845 31.3422 97.879 31.3303C97.921 31.3144 97.9649 31.3039 98.0094 31.299C98.0581 31.299 98.1246 31.299 98.2039 31.299C98.2832 31.299 98.3523 31.299 98.4086 31.299C98.4535 31.3037 98.4975 31.3151 98.5391 31.3329C98.5675 31.344 98.5917 31.3641 98.6082 31.3902C98.6218 31.4158 98.6288 31.4444 98.6286 31.4735L98.6363 36.7335Z"
            fill="#484848" />
        <path
            d="M105.926 35.2693C105.933 35.5123 105.882 35.7533 105.778 35.972C105.673 36.1906 105.519 36.3803 105.327 36.5251C105.115 36.6843 104.874 36.8001 104.618 36.8663C104.307 36.9484 103.986 36.9878 103.664 36.9836C103.476 36.9841 103.289 36.9693 103.104 36.9393C102.943 36.9137 102.784 36.8771 102.628 36.8299C102.503 36.7921 102.382 36.7423 102.267 36.6814C102.193 36.6457 102.124 36.602 102.06 36.5511C102.025 36.5239 101.995 36.4913 101.97 36.4547C101.95 36.4257 101.936 36.393 101.929 36.3583C101.929 36.3218 101.916 36.2802 101.909 36.2307C101.901 36.1812 101.909 36.1186 101.909 36.0483C101.908 35.995 101.913 35.9419 101.922 35.8894C101.925 35.8533 101.935 35.8181 101.95 35.7852C101.958 35.7619 101.971 35.7406 101.988 35.7227C102.007 35.7093 102.029 35.7029 102.052 35.7044C102.117 35.7141 102.178 35.7411 102.229 35.7826C102.324 35.8481 102.424 35.9064 102.528 35.9571C102.678 36.0311 102.835 36.0912 102.996 36.1369C103.221 36.1959 103.452 36.2231 103.684 36.2176C103.857 36.2187 104.029 36.1986 104.196 36.1577C104.336 36.1221 104.468 36.0602 104.585 35.9754C104.693 35.8969 104.781 35.7933 104.841 35.6732C104.902 35.5421 104.931 35.3985 104.928 35.2537C104.93 35.1252 104.901 34.9981 104.843 34.8838C104.778 34.7692 104.685 34.674 104.572 34.6076C104.426 34.5226 104.267 34.462 104.101 34.4279C103.873 34.3827 103.641 34.3617 103.408 34.3653H102.832C102.8 34.3664 102.769 34.3592 102.74 34.3445C102.716 34.328 102.696 34.3057 102.681 34.2794C102.661 34.2435 102.65 34.2033 102.648 34.1621C102.644 34.1049 102.644 34.0474 102.648 33.9902C102.645 33.9355 102.645 33.8807 102.648 33.8261C102.655 33.7879 102.667 33.751 102.684 33.7166C102.696 33.6907 102.716 33.6689 102.74 33.6541C102.767 33.6399 102.797 33.6327 102.827 33.6333H103.367C103.576 33.6368 103.784 33.6176 103.989 33.576C104.144 33.545 104.292 33.4859 104.426 33.4014C104.535 33.3334 104.623 33.2372 104.682 33.1227C104.739 33.0035 104.767 32.8722 104.764 32.7397C104.767 32.6217 104.74 32.5048 104.685 32.401C104.632 32.3039 104.559 32.2201 104.47 32.1561C104.369 32.088 104.257 32.0386 104.14 32.0102C104.002 31.9773 103.862 31.9607 103.72 31.9607C103.514 31.9597 103.31 31.9877 103.111 32.0441C102.951 32.0899 102.794 32.1492 102.643 32.2212C102.51 32.2864 102.403 32.3437 102.318 32.3958C102.265 32.4366 102.204 32.4642 102.139 32.4766C102.12 32.4767 102.101 32.4712 102.085 32.4609C102.065 32.4487 102.049 32.4306 102.039 32.4088C102.023 32.3765 102.013 32.341 102.011 32.3046C102.007 32.2509 102.007 32.1968 102.011 32.1431C102.01 32.0556 102.019 31.9682 102.037 31.8826C102.053 31.8184 102.085 31.7599 102.131 31.7132C102.205 31.6477 102.287 31.5925 102.374 31.5491C102.503 31.4792 102.639 31.4233 102.779 31.3824C102.946 31.3294 103.117 31.2885 103.29 31.2599C103.475 31.2262 103.663 31.2096 103.851 31.2104C104.109 31.2078 104.367 31.2375 104.618 31.299C104.833 31.3515 105.036 31.4452 105.217 31.5752C105.381 31.6927 105.515 31.8491 105.606 32.0311C105.702 32.2276 105.749 32.4448 105.744 32.6641C105.751 32.9471 105.661 33.2237 105.488 33.4457C105.397 33.5585 105.29 33.6569 105.171 33.7375C105.041 33.8242 104.9 33.8909 104.751 33.9355C104.906 33.9521 105.056 33.9971 105.194 34.0683C105.339 34.1384 105.472 34.2336 105.585 34.3497C105.702 34.4673 105.797 34.606 105.864 34.7587C105.919 34.9228 105.94 35.0966 105.926 35.2693Z"
            fill="#484848" />
        <path
            d="M110.859 36.7335C110.86 36.7533 110.856 36.7731 110.848 36.7912C110.84 36.8094 110.828 36.8253 110.813 36.8377C110.775 36.8646 110.732 36.8824 110.687 36.8898C110.61 36.9044 110.531 36.9105 110.452 36.908C110.372 36.9101 110.292 36.904 110.214 36.8898C110.167 36.8838 110.122 36.8659 110.083 36.8377C110.07 36.8241 110.06 36.8077 110.053 36.7898C110.047 36.7718 110.044 36.7526 110.045 36.7335V36.2124C109.826 36.4494 109.566 36.6429 109.277 36.783C109.003 36.9196 108.701 36.99 108.395 36.9888C108.144 36.9913 107.895 36.9553 107.655 36.882C107.449 36.8167 107.259 36.7095 107.095 36.5667C106.938 36.43 106.814 36.259 106.732 36.0665C106.644 35.8511 106.6 35.6197 106.604 35.3866C106.595 35.1149 106.656 34.8457 106.78 34.605C106.904 34.3829 107.08 34.1957 107.292 34.0605C107.543 33.9047 107.82 33.7953 108.108 33.7375C108.465 33.6608 108.829 33.6241 109.193 33.6281H109.904V33.219C109.908 33.038 109.886 32.8574 109.84 32.6824C109.805 32.5375 109.735 32.4035 109.638 32.2916C109.537 32.1847 109.411 32.105 109.272 32.0597C109.095 32.001 108.909 31.9737 108.722 31.979C108.509 31.9761 108.297 32.0051 108.093 32.0649C107.925 32.1132 107.762 32.176 107.604 32.2525C107.466 32.3202 107.348 32.3828 107.254 32.4375C107.192 32.4829 107.121 32.5124 107.046 32.5234C107.017 32.5241 106.989 32.5159 106.965 32.5C106.939 32.4822 106.919 32.4579 106.906 32.4297C106.886 32.3925 106.873 32.3518 106.867 32.3098C106.859 32.2564 106.855 32.2024 106.855 32.1483C106.853 32.0713 106.86 31.9945 106.875 31.919C106.891 31.856 106.926 31.7996 106.975 31.7575C107.053 31.6881 107.139 31.6287 107.231 31.5804C107.37 31.5038 107.517 31.441 107.668 31.3928C107.851 31.3348 108.039 31.2912 108.228 31.2625C108.423 31.2262 108.621 31.2079 108.82 31.2078C109.14 31.2001 109.461 31.2432 109.769 31.3355C110.006 31.4076 110.223 31.5372 110.401 31.7132C110.566 31.8856 110.686 32.0968 110.751 32.3281C110.827 32.608 110.863 32.8975 110.859 33.1878V36.7335ZM109.917 34.3289H109.109C108.881 34.3259 108.653 34.3486 108.431 34.3966C108.261 34.4322 108.1 34.4993 107.955 34.5946C107.836 34.6727 107.74 34.7815 107.676 34.9098C107.615 35.0426 107.584 35.1878 107.586 35.3345C107.58 35.4554 107.6 35.5762 107.644 35.6886C107.689 35.801 107.756 35.9023 107.842 35.9858C108.04 36.1583 108.296 36.246 108.556 36.2307C108.8 36.2316 109.04 36.165 109.249 36.0379C109.499 35.8755 109.725 35.6762 109.917 35.4465V34.3289Z"
            fill="#484848" />
        <path
            d="M116.61 36.7335C116.611 36.7621 116.603 36.7903 116.587 36.8142C116.567 36.8383 116.542 36.8571 116.513 36.8689C116.467 36.8868 116.419 36.8982 116.37 36.9028C116.293 36.9076 116.216 36.9076 116.14 36.9028C116.061 36.9077 115.983 36.9077 115.904 36.9028C115.854 36.8982 115.805 36.8868 115.758 36.8689C115.728 36.8584 115.7 36.8395 115.679 36.8142C115.661 36.7913 115.65 36.763 115.648 36.7335V32.1301H113.187V36.7335C113.188 36.7621 113.18 36.7903 113.164 36.8142C113.142 36.8389 113.115 36.8577 113.085 36.8689C113.038 36.8868 112.989 36.8982 112.939 36.9028C112.862 36.9076 112.785 36.9076 112.709 36.9028C112.633 36.9076 112.557 36.9076 112.481 36.9028C112.43 36.8978 112.38 36.8865 112.332 36.8689C112.304 36.8611 112.278 36.8433 112.261 36.8186C112.244 36.7938 112.236 36.7637 112.238 36.7335V31.6585C112.23 31.5644 112.258 31.4709 112.317 31.398C112.345 31.3687 112.378 31.3459 112.415 31.3311C112.452 31.3162 112.492 31.3097 112.532 31.312H116.316C116.356 31.3098 116.395 31.3163 116.432 31.3311C116.468 31.346 116.501 31.3688 116.529 31.398C116.584 31.4727 116.61 31.5654 116.603 31.6585L116.61 36.7335Z"
            fill="#484848" />
        <path
            d="M122.615 36.7335C122.614 36.7602 122.606 36.7862 122.592 36.809C122.573 36.8347 122.546 36.8538 122.516 36.8637C122.469 36.8796 122.421 36.8901 122.372 36.895C122.22 36.9124 122.067 36.9124 121.914 36.895C121.863 36.8894 121.813 36.879 121.763 36.8637C121.732 36.8551 121.704 36.8358 121.684 36.809C121.669 36.7867 121.661 36.7604 121.661 36.7335V33.7036C121.661 33.5525 121.661 33.3962 121.661 33.2399C121.661 33.0836 121.679 32.9272 121.692 32.7735C121.602 32.9299 121.505 33.0836 121.4 33.2321C121.295 33.3806 121.19 33.5317 121.083 33.6802L118.898 36.7335L118.826 36.8142C118.805 36.8388 118.777 36.8576 118.747 36.8689C118.708 36.8851 118.666 36.8948 118.624 36.8976C118.563 36.9021 118.501 36.9021 118.44 36.8976C118.371 36.9025 118.302 36.9025 118.233 36.8976C118.189 36.8924 118.146 36.8819 118.105 36.8663C118.076 36.8569 118.052 36.8375 118.036 36.8116C118.021 36.7891 118.014 36.7628 118.015 36.7361V31.4579C118.014 31.4312 118.021 31.4049 118.036 31.3824C118.053 31.3555 118.08 31.3354 118.11 31.325C118.157 31.3072 118.206 31.2958 118.256 31.2912C118.317 31.2912 118.391 31.2912 118.481 31.2912C118.609 31.2842 118.737 31.2992 118.859 31.3355C118.888 31.3432 118.913 31.36 118.932 31.3835C118.95 31.4069 118.961 31.4357 118.962 31.4657V34.5138C118.962 34.6649 118.962 34.816 118.962 34.9645C118.962 35.113 118.944 35.2641 118.931 35.4126C119.021 35.2641 119.11 35.1208 119.187 34.9775C119.264 34.8343 119.374 34.6962 119.476 34.5607L121.699 31.4657C121.721 31.4365 121.745 31.4094 121.771 31.385C121.797 31.3596 121.829 31.3409 121.863 31.3303C121.904 31.3147 121.947 31.3042 121.991 31.299C122.04 31.299 122.106 31.299 122.186 31.299C122.265 31.299 122.334 31.299 122.39 31.299C122.436 31.3037 122.481 31.3151 122.523 31.3329C122.551 31.3454 122.575 31.3652 122.592 31.3902C122.606 31.4158 122.613 31.4444 122.613 31.4735L122.615 36.7335Z"
            fill="#484848" />
        <path
            d="M127.733 35.9259C127.733 35.991 127.733 36.0483 127.733 36.0978C127.731 36.1394 127.724 36.1805 127.712 36.2202C127.704 36.2507 127.692 36.2803 127.679 36.3088C127.653 36.3497 127.622 36.3873 127.587 36.4208C127.507 36.4889 127.422 36.549 127.331 36.6006C127.208 36.6767 127.079 36.7412 126.945 36.7934C126.793 36.8524 126.636 36.8986 126.476 36.9315C126.308 36.9654 126.136 36.9829 125.965 36.9836C125.626 36.99 125.29 36.9262 124.977 36.796C124.697 36.6757 124.449 36.4879 124.255 36.2489C124.052 35.9872 123.902 35.687 123.813 35.3657C123.707 34.973 123.656 34.5668 123.662 34.1595C123.648 33.7082 123.707 33.2576 123.836 32.8257C123.94 32.4869 124.114 32.1751 124.348 31.9112C124.56 31.6795 124.823 31.5011 125.115 31.3902C125.419 31.2733 125.742 31.215 126.067 31.2182C126.376 31.2192 126.683 31.2766 126.973 31.3876C127.094 31.4336 127.211 31.4921 127.321 31.5621C127.399 31.6117 127.473 31.6684 127.541 31.7315C127.577 31.7647 127.608 31.8023 127.635 31.8435C127.655 31.873 127.67 31.9056 127.679 31.9399C127.692 31.9802 127.7 32.0223 127.702 32.0649C127.705 32.1231 127.705 32.1813 127.702 32.2395C127.711 32.3489 127.693 32.459 127.651 32.5599C127.64 32.5853 127.623 32.6073 127.601 32.6234C127.579 32.6395 127.552 32.649 127.525 32.6511C127.45 32.6423 127.38 32.6084 127.326 32.5547C127.235 32.4778 127.141 32.4064 127.042 32.3411C126.912 32.2544 126.773 32.1827 126.627 32.1275C126.442 32.059 126.246 32.0263 126.049 32.0311C125.845 32.0196 125.642 32.0614 125.458 32.1526C125.274 32.2438 125.117 32.3813 125 32.5521C124.727 33.024 124.6 33.5688 124.637 34.1152C124.632 34.4151 124.664 34.7143 124.731 35.0062C124.784 35.2359 124.878 35.4534 125.01 35.6471C125.125 35.8128 125.28 35.9449 125.461 36.0301C125.653 36.1167 125.862 36.1594 126.072 36.1551C126.268 36.1597 126.463 36.1242 126.645 36.0509C126.796 35.9886 126.94 35.911 127.075 35.819C127.195 35.7357 127.295 35.6601 127.38 35.5924C127.431 35.5377 127.498 35.5011 127.571 35.4882C127.596 35.488 127.621 35.4962 127.641 35.5116C127.663 35.5343 127.679 35.562 127.689 35.5924C127.704 35.6371 127.713 35.6834 127.717 35.7305C127.728 35.7826 127.733 35.8477 127.733 35.9259Z"
            fill="#484848" />
        <path
            d="M132.927 35.0531C132.929 35.3124 132.879 35.5694 132.781 35.8086C132.681 36.0462 132.524 36.2548 132.325 36.4156C132.09 36.6026 131.82 36.7407 131.532 36.822C131.157 36.9292 130.768 36.9801 130.378 36.9731H130.056C129.946 36.9731 129.836 36.9731 129.728 36.9731L129.414 36.9523L129.109 36.9236C129.041 36.9244 128.974 36.9101 128.911 36.8817C128.849 36.8534 128.794 36.8116 128.749 36.7594C128.704 36.7071 128.671 36.6456 128.652 36.579C128.633 36.5125 128.628 36.4425 128.638 36.3739V31.4657C128.638 31.4374 128.645 31.4095 128.659 31.385C128.678 31.3596 128.704 31.3399 128.733 31.3277C128.779 31.3076 128.829 31.2952 128.879 31.2912C128.94 31.2912 129.017 31.2912 129.109 31.2912C129.201 31.2912 129.278 31.2912 129.339 31.2912C129.39 31.2952 129.439 31.3076 129.485 31.3277C129.515 31.3406 129.541 31.3602 129.562 31.385C129.578 31.4087 129.586 31.437 129.585 31.4657V33.318C129.728 33.318 129.879 33.2972 130.046 33.292C130.212 33.2868 130.378 33.292 130.557 33.292C130.92 33.2861 131.282 33.329 131.634 33.4196C131.902 33.4871 132.152 33.6094 132.371 33.7792C132.557 33.9255 132.703 34.1173 132.796 34.3367C132.887 34.564 132.931 34.8078 132.927 35.0531ZM131.929 35.1182C131.93 34.9698 131.905 34.8224 131.854 34.6832C131.801 34.5502 131.712 34.4348 131.599 34.3497C131.465 34.2494 131.313 34.1776 131.151 34.1387C130.929 34.0865 130.701 34.062 130.473 34.0657C130.312 34.0657 130.156 34.0657 130 34.0788C129.843 34.0918 129.705 34.0944 129.577 34.1074V36.1291C129.71 36.1447 129.856 36.1603 130.007 36.1707C130.158 36.1812 130.332 36.189 130.519 36.189C130.893 36.2189 131.265 36.1187 131.576 35.905C131.691 35.8114 131.783 35.6913 131.845 35.5546C131.906 35.4179 131.935 35.2684 131.929 35.1182Z"
            fill="#484848" />
        <path
            d="M139.927 33.9667C139.933 34.3996 139.879 34.8311 139.766 35.2485C139.674 35.5933 139.514 35.9151 139.295 36.1942C139.09 36.4516 138.827 36.6539 138.527 36.783C138.187 36.9217 137.824 36.9899 137.458 36.9836C137.263 36.985 137.069 36.9685 136.877 36.9341C136.715 36.9045 136.555 36.8627 136.399 36.809C136.274 36.7656 136.155 36.7088 136.043 36.6397C135.97 36.5954 135.9 36.5449 135.836 36.4886C135.804 36.4618 135.775 36.4321 135.749 36.4C135.731 36.373 135.718 36.343 135.71 36.3114C135.699 36.2707 135.692 36.2287 135.69 36.1864C135.69 36.1369 135.69 36.0744 135.69 36.0014C135.682 35.8989 135.696 35.7958 135.731 35.6992C135.741 35.6769 135.756 35.6578 135.776 35.644C135.796 35.6302 135.819 35.6222 135.843 35.621C135.908 35.632 135.968 35.665 136.012 35.7148C136.103 35.7911 136.201 35.8591 136.304 35.918C136.451 35.9995 136.605 36.0666 136.764 36.1186C136.988 36.1865 137.22 36.2181 137.453 36.2124C137.655 36.2221 137.856 36.1865 138.043 36.1082C138.23 36.0299 138.398 35.9107 138.535 35.7591C138.833 35.3649 138.987 34.878 138.972 34.381H136.373C136.346 34.381 136.32 34.3731 136.297 34.3584C136.274 34.3436 136.256 34.3225 136.245 34.2976C136.208 34.2096 136.193 34.1141 136.199 34.0188C136.193 33.9244 136.208 33.8297 136.245 33.7427C136.256 33.7175 136.274 33.696 136.297 33.6808C136.319 33.6656 136.346 33.6572 136.373 33.6567H138.957C138.938 33.4193 138.888 33.1854 138.809 32.9611C138.738 32.7678 138.63 32.5907 138.491 32.4401C138.358 32.2935 138.195 32.1779 138.013 32.1014C137.812 32.0181 137.596 31.9773 137.378 31.9816C137.177 31.9771 136.975 32.0098 136.785 32.078C136.631 32.1321 136.484 32.2029 136.345 32.289C136.242 32.3518 136.142 32.4214 136.048 32.4974C136.003 32.5468 135.944 32.5805 135.879 32.5938C135.858 32.595 135.837 32.5885 135.82 32.5755C135.8 32.5586 135.785 32.5372 135.774 32.513C135.757 32.4761 135.747 32.4364 135.744 32.3958C135.74 32.3333 135.74 32.2707 135.744 32.2082C135.741 32.1527 135.741 32.097 135.744 32.0415C135.744 31.9972 135.756 31.9607 135.764 31.9295C135.771 31.9016 135.78 31.8745 135.792 31.8487C135.81 31.8207 135.832 31.7953 135.856 31.7731C135.915 31.7223 135.978 31.6753 136.043 31.6325C136.156 31.5589 136.275 31.4953 136.399 31.4423C136.564 31.3732 136.736 31.3183 136.91 31.2781C137.116 31.2306 137.326 31.2079 137.537 31.2104C137.87 31.2063 138.2 31.2682 138.509 31.3928C138.802 31.5111 139.064 31.6955 139.277 31.9321C139.499 32.1834 139.667 32.4788 139.771 32.7996C139.885 33.1774 139.938 33.5716 139.927 33.9667Z"
            fill="#484848" />
        <path
            d="M145.185 36.7673C145.185 36.7899 145.177 36.8117 145.164 36.8299C145.144 36.8506 145.118 36.865 145.09 36.8715C145.044 36.8861 144.995 36.8948 144.947 36.8976C144.871 36.9023 144.795 36.9023 144.719 36.8976C144.634 36.9024 144.548 36.9024 144.463 36.8976C144.408 36.8919 144.353 36.8814 144.299 36.8663C144.265 36.8567 144.234 36.8389 144.207 36.8142C144.19 36.7929 144.177 36.7681 144.169 36.7413L143.616 35.3788C143.555 35.2217 143.482 35.0701 143.396 34.9255C143.325 34.8063 143.232 34.7019 143.123 34.618C143.017 34.5394 142.898 34.4819 142.772 34.4487C142.625 34.4124 142.475 34.3949 142.324 34.3966H141.923V36.7647C141.921 36.7868 141.911 36.8073 141.894 36.822C141.87 36.8453 141.84 36.8615 141.807 36.8689C141.759 36.8832 141.709 36.8928 141.659 36.8976C141.588 36.902 141.517 36.902 141.447 36.8976C141.376 36.9021 141.305 36.9021 141.234 36.8976C141.184 36.893 141.134 36.8834 141.086 36.8689C141.054 36.8627 141.024 36.8463 141.001 36.822C140.986 36.8071 140.977 36.7865 140.976 36.7647V31.4188C140.976 31.408 140.978 31.3973 140.983 31.3874C140.987 31.3776 140.994 31.3688 141.001 31.3615C141.026 31.341 141.055 31.3259 141.086 31.3172C141.135 31.3051 141.184 31.2964 141.234 31.2912C141.296 31.2912 141.365 31.2912 141.447 31.2912C141.529 31.2912 141.598 31.2912 141.659 31.2912C141.709 31.2966 141.759 31.3053 141.807 31.3172C141.839 31.3272 141.868 31.3421 141.894 31.3615C141.903 31.3686 141.909 31.3774 141.914 31.3872C141.919 31.3971 141.922 31.4078 141.923 31.4188V33.6229H142.324C142.459 33.6234 142.593 33.6068 142.723 33.5734C142.843 33.5401 142.954 33.4844 143.053 33.4092C143.155 33.3258 143.241 33.2254 143.309 33.1122C143.395 32.974 143.467 32.8274 143.524 32.6746L144.005 31.4657C144.012 31.435 144.026 31.4063 144.046 31.3824C144.07 31.356 144.1 31.3362 144.133 31.3251C144.182 31.307 144.233 31.2956 144.284 31.2912C144.348 31.2912 144.43 31.2912 144.54 31.2912C144.65 31.2912 144.706 31.2912 144.765 31.2912C144.812 31.2957 144.858 31.3044 144.903 31.3172C144.929 31.3259 144.952 31.3412 144.97 31.3615C144.981 31.3787 144.987 31.3985 144.988 31.4188C144.987 31.4558 144.982 31.4926 144.972 31.5283C144.961 31.5743 144.946 31.6195 144.929 31.6637L144.438 32.8257C144.37 32.9988 144.285 33.164 144.182 33.318C144.103 33.4376 144.011 33.5477 143.908 33.6463C143.824 33.7281 143.729 33.7974 143.627 33.8521C143.538 33.8983 143.445 33.9366 143.35 33.9667C143.479 34.0111 143.603 34.0678 143.721 34.1361C143.841 34.2053 143.951 34.2903 144.049 34.3888C144.153 34.4929 144.245 34.6092 144.323 34.7353C144.414 34.8834 144.493 35.0394 144.558 35.2016L145.126 36.5329C145.14 36.557 145.152 36.5822 145.162 36.6084C145.162 36.6319 145.162 36.6553 145.18 36.6762C145.198 36.697 145.18 36.7152 145.18 36.7283C145.182 36.7411 145.184 36.7542 145.185 36.7673Z"
            fill="#484848" />
        <path
            d="M150.826 34.0136C150.832 34.4317 150.782 34.8487 150.681 35.2537C150.597 35.5897 150.451 35.9063 150.251 36.1864C150.065 36.4366 149.824 36.6384 149.547 36.7752C149.247 36.9184 148.919 36.9897 148.588 36.9836C148.445 36.9847 148.302 36.969 148.163 36.9367C148.03 36.9044 147.902 36.8554 147.782 36.7908C147.649 36.7175 147.525 36.6302 147.411 36.5303C147.288 36.4313 147.155 36.3114 147.019 36.176V38.8176C147.02 38.8463 147.012 38.8744 146.996 38.8984C146.978 38.9246 146.952 38.9446 146.922 38.9557C146.876 38.9749 146.828 38.9871 146.779 38.9922C146.7 38.9969 146.622 38.9969 146.543 38.9922C146.467 38.9968 146.39 38.9968 146.313 38.9922C146.263 38.9869 146.214 38.9746 146.167 38.9557C146.137 38.9454 146.111 38.9252 146.093 38.8984C146.08 38.8736 146.073 38.8459 146.073 38.8176V31.4657C146.071 31.4359 146.077 31.4062 146.09 31.3798C146.107 31.354 146.131 31.3346 146.16 31.3251C146.201 31.3076 146.245 31.2962 146.29 31.2912C146.344 31.2912 146.41 31.2912 146.487 31.2912C146.564 31.2912 146.633 31.2912 146.684 31.2912C146.729 31.2969 146.773 31.3082 146.815 31.3251C146.842 31.3362 146.866 31.3552 146.884 31.3798C146.899 31.4054 146.907 31.4356 146.904 31.4657V32.1717C147.049 32.0214 147.201 31.8788 147.36 31.7445C147.495 31.6299 147.642 31.5295 147.797 31.4449C147.941 31.3661 148.094 31.3049 148.253 31.2625C148.412 31.221 148.576 31.2009 148.741 31.2026C149.074 31.1919 149.405 31.2682 149.701 31.4241C149.963 31.5684 150.185 31.7771 150.348 32.0311C150.517 32.3069 150.637 32.6113 150.701 32.9299C150.783 33.2851 150.825 33.6487 150.826 34.0136ZM149.844 34.1257C149.844 33.864 149.824 33.6027 149.785 33.3441C149.75 33.1111 149.679 32.8851 149.575 32.6746C149.485 32.4877 149.349 32.3272 149.181 32.2082C148.998 32.0856 148.781 32.0237 148.562 32.0311C148.439 32.0306 148.316 32.0499 148.199 32.0884C148.07 32.1286 147.948 32.1874 147.835 32.2629C147.696 32.3551 147.566 32.4607 147.447 32.5782C147.295 32.7297 147.152 32.8907 147.019 33.0601V35.1443C147.237 35.4226 147.488 35.672 147.766 35.8868C147.978 36.0522 148.236 36.1435 148.503 36.1473C148.721 36.1541 148.936 36.0932 149.12 35.9727C149.294 35.8525 149.437 35.6917 149.537 35.5038C149.646 35.2987 149.724 35.0783 149.77 34.8499C149.819 34.6127 149.844 34.3708 149.844 34.1283V34.1257Z"
            fill="#484848" />
        <path
            d="M155.79 36.7335C155.791 36.7533 155.787 36.7731 155.779 36.7912C155.771 36.8094 155.759 36.8253 155.744 36.8377C155.707 36.8646 155.664 36.8824 155.619 36.8898C155.541 36.9044 155.462 36.9105 155.383 36.908C155.304 36.9101 155.224 36.904 155.145 36.8898C155.098 36.8838 155.053 36.8659 155.015 36.8377C155.002 36.8241 154.991 36.8077 154.985 36.7898C154.978 36.7718 154.975 36.7526 154.976 36.7335V36.2124C154.758 36.4494 154.497 36.6429 154.209 36.783C153.934 36.9196 153.632 36.99 153.326 36.9888C153.077 36.9915 152.828 36.9555 152.589 36.882C152.382 36.8173 152.191 36.71 152.026 36.5667C151.87 36.43 151.746 36.259 151.663 36.0665C151.575 35.8511 151.532 35.6197 151.535 35.3866C151.527 35.1149 151.588 34.8457 151.712 34.605C151.835 34.3829 152.011 34.1957 152.223 34.0605C152.475 33.9047 152.751 33.7953 153.04 33.7375C153.396 33.6609 153.76 33.6242 154.124 33.628H154.836V33.219C154.838 33.0382 154.818 32.8577 154.774 32.6824C154.738 32.5374 154.667 32.4034 154.57 32.2916C154.468 32.1847 154.343 32.105 154.204 32.0597C154.026 32.001 153.84 31.9737 153.654 31.979C153.441 31.9761 153.229 32.0051 153.024 32.0649C152.857 32.1127 152.694 32.1755 152.538 32.2525C152.397 32.3202 152.282 32.3828 152.188 32.4375C152.125 32.4826 152.053 32.5121 151.978 32.5234C151.949 32.5241 151.92 32.5159 151.896 32.5C151.871 32.4815 151.851 32.4574 151.837 32.4297C151.817 32.3925 151.804 32.3518 151.799 32.3098C151.795 32.2561 151.795 32.202 151.799 32.1483C151.796 32.0713 151.803 31.9942 151.819 31.919C151.835 31.8566 151.869 31.8003 151.916 31.7575C151.994 31.6881 152.08 31.6286 152.172 31.5804C152.312 31.5038 152.458 31.441 152.61 31.3928C152.786 31.3321 152.966 31.2851 153.15 31.2521C153.345 31.2156 153.542 31.1973 153.741 31.1974C154.061 31.1899 154.38 31.2329 154.687 31.325C154.925 31.3972 155.142 31.5268 155.319 31.7028C155.484 31.8752 155.605 32.0864 155.67 32.3176C155.746 32.5975 155.782 32.887 155.777 33.1773L155.79 36.7335ZM154.849 34.3289H154.04C153.812 34.3259 153.585 34.3486 153.362 34.3966C153.193 34.4322 153.031 34.4993 152.886 34.5946C152.767 34.6727 152.671 34.7814 152.607 34.9098C152.546 35.0426 152.516 35.1878 152.518 35.3345C152.512 35.4554 152.532 35.5762 152.576 35.6886C152.62 35.801 152.687 35.9023 152.774 35.9858C152.973 36.1575 153.229 36.2451 153.49 36.2307C153.733 36.2316 153.972 36.165 154.181 36.0379C154.431 35.8755 154.656 35.6762 154.849 35.4465V34.3289Z"
            fill="#484848" />
        <path
            d="M161.703 36.7335C161.704 36.7621 161.696 36.7903 161.68 36.8142C161.66 36.8383 161.635 36.8571 161.606 36.8689C161.56 36.8868 161.512 36.8982 161.463 36.9028C161.386 36.9076 161.309 36.9076 161.232 36.9028C161.154 36.9077 161.075 36.9077 160.997 36.9028C160.948 36.8986 160.899 36.8872 160.854 36.8689C160.824 36.8578 160.799 36.8389 160.779 36.8142C160.764 36.7903 160.756 36.7621 160.756 36.7335V34.4252H158.121V36.7335C158.122 36.7621 158.114 36.7903 158.098 36.8142C158.078 36.8383 158.052 36.8571 158.024 36.8689C157.977 36.8868 157.928 36.8982 157.878 36.9028C157.8 36.9077 157.721 36.9077 157.643 36.9028C157.567 36.9075 157.491 36.9075 157.415 36.9028C157.364 36.8978 157.314 36.8865 157.266 36.8689C157.237 36.8578 157.212 36.8389 157.192 36.8142C157.179 36.7896 157.172 36.7617 157.172 36.7335V31.4657C157.171 31.4374 157.178 31.4095 157.192 31.385C157.212 31.3602 157.238 31.3405 157.266 31.3277C157.314 31.308 157.364 31.2957 157.415 31.2912C157.476 31.2912 157.553 31.2912 157.643 31.2912C157.732 31.2912 157.817 31.2912 157.878 31.2912C157.928 31.2952 157.977 31.3076 158.024 31.3277C158.052 31.3413 158.077 31.3608 158.098 31.385C158.114 31.4087 158.122 31.437 158.121 31.4657V33.6072H160.756V31.4683C160.755 31.4396 160.763 31.4113 160.779 31.3876C160.799 31.3628 160.825 31.3431 160.854 31.3303C160.899 31.3098 160.947 31.2974 160.997 31.2938C161.058 31.2938 161.138 31.2938 161.232 31.2938C161.327 31.2938 161.401 31.2938 161.463 31.2938C161.512 31.2978 161.56 31.3101 161.606 31.3303C161.634 31.3439 161.659 31.3634 161.68 31.3876C161.696 31.4113 161.704 31.4396 161.703 31.4683V36.7335Z"
            fill="#484848" />
        <path
            d="M167.007 36.7335C167.008 36.7533 167.004 36.7731 166.996 36.7912C166.988 36.8094 166.976 36.8253 166.961 36.8377C166.923 36.8645 166.879 36.8823 166.833 36.8898C166.755 36.9045 166.677 36.9106 166.598 36.908C166.518 36.9101 166.438 36.904 166.36 36.8898C166.313 36.8846 166.269 36.8666 166.232 36.8377C166.218 36.8246 166.207 36.8085 166.199 36.7904C166.192 36.7723 166.189 36.7529 166.191 36.7335V36.2124C165.976 36.4487 165.72 36.6422 165.436 36.783C165.161 36.92 164.859 36.9904 164.553 36.9888C164.304 36.9915 164.055 36.9555 163.816 36.882C163.61 36.8167 163.418 36.7095 163.254 36.5667C163.098 36.4298 162.974 36.2588 162.893 36.0665C162.803 35.8517 162.759 35.62 162.762 35.3866C162.754 35.1146 162.816 34.8452 162.941 34.605C163.064 34.3827 163.24 34.1955 163.453 34.0605C163.704 33.9047 163.981 33.7953 164.269 33.7375C164.626 33.6609 164.99 33.6242 165.354 33.6281H166.068V33.219C166.07 33.0381 166.048 32.8576 166.004 32.6824C165.968 32.537 165.898 32.4027 165.799 32.2916C165.699 32.1848 165.574 32.1051 165.436 32.0597C165.258 32.001 165.071 31.9737 164.883 31.979C164.671 31.976 164.46 32.005 164.257 32.0649C164.088 32.1123 163.925 32.175 163.768 32.2525C163.627 32.3202 163.512 32.3828 163.417 32.4375C163.355 32.4826 163.283 32.5121 163.207 32.5234C163.179 32.5241 163.152 32.5159 163.128 32.5C163.103 32.4816 163.082 32.4576 163.067 32.4297C163.047 32.3925 163.034 32.3518 163.028 32.3098C163.024 32.2561 163.024 32.2021 163.028 32.1483C163.026 32.0713 163.032 31.9943 163.049 31.919C163.065 31.8566 163.099 31.8004 163.146 31.7575C163.224 31.6881 163.31 31.6287 163.402 31.5804C163.542 31.5048 163.688 31.442 163.839 31.3928C164.016 31.3324 164.196 31.2854 164.379 31.2521C164.574 31.2156 164.772 31.1973 164.97 31.1974C165.291 31.1897 165.61 31.2327 165.917 31.3251C166.155 31.3972 166.371 31.5268 166.549 31.7028C166.715 31.8745 166.835 32.086 166.9 32.3176C166.976 32.5974 167.013 32.8869 167.01 33.1774L167.007 36.7335ZM166.065 34.3289H165.254C165.027 34.3259 164.799 34.3486 164.576 34.3966C164.407 34.4322 164.246 34.4993 164.1 34.5946C163.982 34.6734 163.886 34.782 163.822 34.9098C163.761 35.0426 163.73 35.1878 163.732 35.3345C163.727 35.4553 163.747 35.5759 163.791 35.6882C163.835 35.8005 163.902 35.9019 163.988 35.9858C164.187 36.1575 164.444 36.2451 164.704 36.2307C164.947 36.2316 165.186 36.165 165.395 36.0379C165.645 35.8748 165.871 35.6756 166.065 35.4465V34.3289Z"
            fill="#484848" />
        <path
            d="M174.941 35.212C174.946 35.4673 174.893 35.7203 174.788 35.9519C174.682 36.1705 174.524 36.358 174.327 36.4964C174.094 36.655 173.833 36.7681 173.56 36.8299C173.213 36.9098 172.858 36.9474 172.503 36.9419H172.134H171.792L171.461 36.921L171.137 36.8924C171.072 36.8918 171.009 36.8774 170.951 36.8501C170.892 36.8228 170.84 36.7832 170.798 36.734C170.756 36.6848 170.724 36.6271 170.705 36.5646C170.686 36.5021 170.681 36.4362 170.689 36.3713V31.8383C170.681 31.7071 170.718 31.5773 170.794 31.4709C170.878 31.3788 170.995 31.3245 171.119 31.3198C171.218 31.3068 171.326 31.2964 171.438 31.2886L171.786 31.2703C171.904 31.2703 172.027 31.2703 172.152 31.2547C172.278 31.2391 172.408 31.2547 172.539 31.2547C172.863 31.25 173.186 31.2815 173.503 31.3485C173.743 31.3979 173.971 31.4906 174.179 31.622C174.35 31.73 174.488 31.8842 174.578 32.0675C174.668 32.2546 174.713 32.461 174.708 32.6693C174.715 32.9421 174.633 33.2094 174.476 33.4301C174.301 33.6515 174.06 33.8089 173.79 33.8782C174.119 33.9329 174.421 34.1001 174.644 34.3523C174.84 34.5944 174.945 34.8988 174.941 35.212ZM173.8 32.7683C173.802 32.6499 173.779 32.5325 173.731 32.4244C173.681 32.3174 173.602 32.227 173.503 32.1639C173.378 32.086 173.24 32.0321 173.096 32.005C172.896 31.9677 172.693 31.9502 172.49 31.9529C172.311 31.9529 172.145 31.9529 171.996 31.9685C171.848 31.9842 171.72 31.9894 171.618 31.9998V33.6359H172.582C172.899 33.657 173.216 33.5789 173.488 33.4118C173.589 33.34 173.671 33.2434 173.725 33.1309C173.78 33.0184 173.805 32.8937 173.8 32.7683ZM173.971 35.2303C173.975 35.0888 173.948 34.9483 173.892 34.8186C173.836 34.697 173.747 34.594 173.636 34.5216C173.499 34.4359 173.347 34.3767 173.189 34.3471C172.975 34.3045 172.758 34.2844 172.541 34.2872H171.618V36.1525C171.689 36.1525 171.766 36.1733 171.845 36.1812L172.086 36.1968L172.342 36.2124H172.569C172.784 36.2157 172.998 36.193 173.206 36.1447C173.364 36.1084 173.513 36.0421 173.647 35.9493C173.757 35.8699 173.846 35.7621 173.902 35.6367C173.957 35.5085 173.985 35.3701 173.984 35.2303H173.971Z"
            fill="#484848" />
        <path
            d="M182.73 36.4729C182.73 36.5359 182.724 36.5988 182.712 36.6605C182.703 36.7036 182.687 36.7449 182.666 36.783C182.65 36.811 182.627 36.8344 182.599 36.8507C182.575 36.8631 182.549 36.8694 182.522 36.8689H178.641C178.615 36.8697 178.589 36.8634 178.567 36.8507C178.54 36.8329 178.518 36.8099 178.5 36.783C178.477 36.7456 178.46 36.7041 178.452 36.6605C178.438 36.599 178.432 36.536 178.434 36.4729C178.432 36.4116 178.438 36.3504 178.452 36.2906C178.46 36.247 178.475 36.2049 178.495 36.1655C178.509 36.1356 178.53 36.1097 178.556 36.09C178.581 36.0725 178.611 36.0633 178.641 36.0639H180.191V30.3116L178.756 31.1844C178.701 31.2166 178.641 31.2403 178.58 31.2547C178.561 31.259 178.542 31.2589 178.524 31.2543C178.506 31.2498 178.489 31.241 178.475 31.2287C178.442 31.1936 178.423 31.1487 178.418 31.101C178.409 31.0276 178.405 30.9536 178.406 30.8796C178.403 30.8232 178.403 30.7666 178.406 30.7102C178.41 30.6703 178.419 30.631 178.431 30.593C178.443 30.5635 178.459 30.5362 178.48 30.5122C178.506 30.4863 178.534 30.4627 178.564 30.4419L180.276 29.3243C180.293 29.3121 180.312 29.3025 180.332 29.2956L180.419 29.2721C180.459 29.2635 180.499 29.2583 180.539 29.2565H180.711C180.788 29.2517 180.864 29.2517 180.941 29.2565C180.99 29.2614 181.038 29.2719 181.084 29.2878C181.113 29.2957 181.138 29.3143 181.153 29.3399C181.165 29.3604 181.171 29.3838 181.171 29.4076V36.0561H182.515C182.546 36.0558 182.576 36.0649 182.602 36.0822C182.629 36.1015 182.652 36.1275 182.668 36.1577C182.685 36.1978 182.698 36.2398 182.707 36.2828C182.721 36.3452 182.728 36.4089 182.73 36.4729Z"
            fill="#484848" />
        <path
            d="M190.413 36.7673C190.413 36.7899 190.406 36.8117 190.393 36.8299C190.372 36.8506 190.346 36.865 190.318 36.8715C190.272 36.8861 190.224 36.8948 190.175 36.8976C190.099 36.9023 190.023 36.9023 189.947 36.8976C189.862 36.9024 189.777 36.9024 189.691 36.8976C189.636 36.8919 189.581 36.8814 189.528 36.8663C189.493 36.8573 189.461 36.8394 189.436 36.8142C189.417 36.7931 189.403 36.7682 189.395 36.7413L188.845 35.3788C188.784 35.2217 188.71 35.0701 188.625 34.9255C188.552 34.8068 188.46 34.7026 188.351 34.618C188.246 34.5394 188.127 34.4819 188 34.4487C187.852 34.4091 187.699 34.389 187.545 34.3888H187.143V36.7569C187.141 36.779 187.131 36.7995 187.115 36.8142C187.091 36.8375 187.061 36.8537 187.028 36.8611C186.979 36.8754 186.93 36.885 186.88 36.8898C186.809 36.8942 186.738 36.8942 186.667 36.8898C186.597 36.8944 186.526 36.8944 186.455 36.8898C186.404 36.8849 186.353 36.8753 186.304 36.8611C186.272 36.8549 186.244 36.8385 186.222 36.8142C186.206 36.7993 186.197 36.7787 186.196 36.7569V31.4188C186.197 31.408 186.199 31.3973 186.203 31.3874C186.208 31.3776 186.214 31.3688 186.222 31.3615C186.246 31.3409 186.274 31.3258 186.304 31.3172C186.354 31.3053 186.404 31.2966 186.455 31.2912C186.514 31.2912 186.585 31.2912 186.667 31.2912C186.749 31.2912 186.818 31.2912 186.88 31.2912C186.93 31.2966 186.979 31.3053 187.028 31.3172C187.059 31.3272 187.088 31.3421 187.115 31.3615C187.123 31.3686 187.13 31.3774 187.135 31.3872C187.14 31.3971 187.143 31.4078 187.143 31.4188V33.6229H187.545C187.679 33.6234 187.813 33.6068 187.944 33.5734C188.063 33.5401 188.175 33.4844 188.274 33.4092C188.376 33.3266 188.463 33.226 188.53 33.1122C188.618 32.9747 188.691 32.828 188.747 32.6746L189.228 31.4657C189.235 31.435 189.249 31.4063 189.269 31.3824C189.293 31.356 189.323 31.3362 189.356 31.3251C189.405 31.307 189.456 31.2956 189.507 31.2912C189.571 31.2912 189.653 31.2912 189.763 31.2912C189.873 31.2912 189.929 31.2912 189.988 31.2912C190.035 31.2962 190.081 31.3049 190.126 31.3172C190.152 31.3259 190.175 31.3412 190.193 31.3615C190.204 31.3787 190.21 31.3985 190.211 31.4188C190.21 31.4558 190.205 31.4926 190.196 31.5283C190.184 31.5743 190.169 31.6195 190.152 31.6637L189.666 32.8257C189.6 32.9993 189.514 33.1646 189.41 33.318C189.332 33.4375 189.241 33.5476 189.139 33.6463C189.055 33.7281 188.96 33.7974 188.857 33.8521C188.769 33.8983 188.676 33.9366 188.581 33.9667C188.71 34.0111 188.834 34.0678 188.952 34.1361C189.067 34.2047 189.173 34.2878 189.267 34.3836C189.371 34.4877 189.463 34.604 189.541 34.7301C189.632 34.8782 189.711 35.0342 189.776 35.1964L190.344 36.5277C190.358 36.5518 190.37 36.577 190.38 36.6032C190.387 36.6252 190.392 36.6479 190.395 36.6709V36.7231C190.403 36.7371 190.409 36.752 190.413 36.7673Z"
            fill="#484848" />
        <path
            d="M195.543 36.7335C195.544 36.7621 195.536 36.7903 195.52 36.8142C195.5 36.8389 195.475 36.8578 195.446 36.8689C195.4 36.8872 195.352 36.8986 195.302 36.9028C195.226 36.9076 195.149 36.9076 195.072 36.9028C194.994 36.9077 194.915 36.9077 194.837 36.9028C194.787 36.8982 194.738 36.8868 194.691 36.8689C194.661 36.8577 194.635 36.8389 194.614 36.8142C194.599 36.7903 194.591 36.7621 194.591 36.7335V32.1301H193.174C193.112 32.7501 193.039 33.3015 192.954 33.7844C192.88 34.2106 192.783 34.6324 192.665 35.0479C192.575 35.3621 192.453 35.6659 192.301 35.9545C192.186 36.1746 192.037 36.3751 191.861 36.5485C191.715 36.6919 191.541 36.8021 191.349 36.8715C191.159 36.9402 190.958 36.9746 190.756 36.9731C190.725 36.9726 190.695 36.9664 190.666 36.9549C190.641 36.9399 190.62 36.9172 190.607 36.8898C190.589 36.8485 190.577 36.8046 190.572 36.7595C190.567 36.6858 190.567 36.6118 190.572 36.5381C190.572 36.4469 190.572 36.3687 190.572 36.3114C190.575 36.2635 190.585 36.2163 190.6 36.1707C190.61 36.142 190.629 36.1173 190.654 36.1004C190.677 36.0882 190.704 36.082 190.73 36.0822C190.856 36.0826 190.98 36.0522 191.091 35.9936C191.219 35.9196 191.329 35.8172 191.413 35.694C191.529 35.525 191.623 35.3421 191.695 35.1495C191.796 34.881 191.876 34.6049 191.935 34.3236C192.01 33.9954 192.076 33.6124 192.143 33.1747C192.209 32.7371 192.268 32.2317 192.327 31.6637C192.327 31.5704 192.356 31.4794 192.409 31.4032C192.434 31.3742 192.466 31.3514 192.501 31.3365C192.537 31.3216 192.575 31.315 192.613 31.3172H195.267C195.306 31.3149 195.346 31.3214 195.383 31.3363C195.42 31.3511 195.454 31.3739 195.482 31.4032C195.538 31.4772 195.566 31.5702 195.558 31.6637L195.543 36.7335Z"
            fill="#484848" />
        <path
            d="M201.548 36.7335C201.548 36.7604 201.54 36.7867 201.525 36.809C201.506 36.8346 201.48 36.8538 201.451 36.8637C201.404 36.8791 201.356 36.8895 201.307 36.895C201.154 36.9124 201 36.9124 200.847 36.895C200.797 36.8895 200.747 36.879 200.699 36.8637C200.666 36.8551 200.637 36.8359 200.617 36.809C200.602 36.7867 200.594 36.7604 200.594 36.7335V33.7036C200.594 33.5525 200.594 33.3962 200.594 33.2399C200.594 33.0836 200.609 32.9273 200.622 32.7735C200.532 32.9299 200.438 33.0836 200.333 33.2321L200.013 33.6802L197.833 36.7335L197.761 36.8142C197.738 36.8383 197.71 36.857 197.679 36.8689C197.64 36.8851 197.599 36.8948 197.557 36.8976C197.495 36.9023 197.434 36.9023 197.372 36.8976C197.303 36.9025 197.234 36.9025 197.165 36.8976C197.122 36.8918 197.079 36.8813 197.037 36.8663C197.009 36.8569 196.984 36.8376 196.968 36.8116C196.955 36.7886 196.948 36.7626 196.948 36.7361V31.4579C196.948 31.4314 196.955 31.4054 196.968 31.3824C196.986 31.3555 197.012 31.3354 197.042 31.3251C197.089 31.3072 197.138 31.2958 197.188 31.2912C197.25 31.2912 197.326 31.2912 197.413 31.2912C197.541 31.284 197.669 31.299 197.792 31.3355C197.82 31.3432 197.846 31.3601 197.864 31.3835C197.883 31.4069 197.893 31.4357 197.894 31.4657V34.5138C197.894 34.6649 197.894 34.816 197.894 34.9645C197.894 35.113 197.876 35.2641 197.866 35.4126C197.953 35.2641 198.043 35.1208 198.122 34.9776C198.201 34.8343 198.309 34.6962 198.411 34.5607L200.635 31.4657C200.656 31.4365 200.68 31.4094 200.706 31.385C200.733 31.3608 200.764 31.3422 200.798 31.3303C200.84 31.3147 200.883 31.3042 200.926 31.299C200.977 31.299 201.041 31.299 201.123 31.299C201.205 31.299 201.272 31.299 201.325 31.299C201.371 31.3037 201.416 31.3151 201.458 31.3329C201.487 31.344 201.511 31.3641 201.528 31.3902C201.541 31.4158 201.548 31.4444 201.548 31.4735V36.7335Z"
            fill="#484848" />
        <path
            d="M207.167 36.7673C207.166 36.7899 207.159 36.8117 207.146 36.8299C207.126 36.8506 207.1 36.865 207.072 36.8715C207.025 36.8861 206.977 36.8948 206.929 36.8976C206.853 36.9023 206.777 36.9023 206.701 36.8976C206.616 36.9024 206.53 36.9024 206.445 36.8976C206.39 36.8921 206.335 36.8817 206.281 36.8663C206.247 36.8567 206.215 36.8389 206.189 36.8142C206.171 36.7931 206.157 36.7682 206.148 36.7413L205.598 35.3788C205.537 35.2217 205.464 35.0701 205.378 34.9255C205.306 34.8068 205.213 34.7026 205.104 34.618C204.999 34.5394 204.88 34.4819 204.754 34.4487C204.607 34.4124 204.457 34.3949 204.306 34.3966H203.904V36.7647C203.903 36.7868 203.893 36.8073 203.876 36.822C203.852 36.8453 203.822 36.8615 203.789 36.8689C203.741 36.8832 203.691 36.8928 203.641 36.8976C203.57 36.902 203.499 36.902 203.429 36.8976C203.358 36.9021 203.287 36.9021 203.216 36.8976C203.165 36.8927 203.115 36.8832 203.065 36.8689C203.034 36.8628 203.005 36.8463 202.983 36.822C202.968 36.8071 202.959 36.7865 202.958 36.7647V31.4188C202.958 31.408 202.96 31.3973 202.965 31.3874C202.969 31.3776 202.975 31.3688 202.983 31.3615C203.007 31.3409 203.035 31.3258 203.065 31.3172C203.115 31.3053 203.165 31.2966 203.216 31.2912C203.278 31.2912 203.347 31.2912 203.429 31.2912C203.51 31.2912 203.579 31.2912 203.641 31.2912C203.691 31.2966 203.74 31.3053 203.789 31.3172C203.82 31.3272 203.85 31.3421 203.876 31.3615C203.885 31.3686 203.891 31.3774 203.896 31.3872C203.901 31.3971 203.904 31.4078 203.904 31.4188V33.6229H204.306C204.441 33.6234 204.575 33.6068 204.705 33.5734C204.824 33.5401 204.936 33.4844 205.035 33.4092C205.137 33.3266 205.224 33.226 205.291 33.1122C205.379 32.9747 205.452 32.828 205.509 32.6746L205.99 31.4657C205.996 31.435 206.01 31.4063 206.031 31.3824C206.053 31.356 206.082 31.3362 206.115 31.3251C206.165 31.3073 206.216 31.2959 206.269 31.2912C206.333 31.2912 206.414 31.2912 206.524 31.2912C206.634 31.2912 206.693 31.2912 206.752 31.2912C206.799 31.2962 206.845 31.3049 206.89 31.3172C206.916 31.3259 206.939 31.3412 206.957 31.3615C206.968 31.3787 206.974 31.3985 206.975 31.4188C206.974 31.4558 206.969 31.4926 206.959 31.5283C206.948 31.5743 206.933 31.6195 206.916 31.6637L206.42 32.8257C206.352 32.9988 206.266 33.164 206.164 33.318C206.084 33.437 205.992 33.547 205.89 33.6463C205.806 33.7281 205.711 33.7974 205.608 33.8521C205.52 33.8978 205.427 33.9362 205.332 33.9667C205.461 34.0116 205.585 34.0683 205.703 34.1361C205.818 34.2047 205.924 34.2878 206.018 34.3836C206.122 34.4877 206.214 34.604 206.292 34.7301C206.383 34.8782 206.462 35.0342 206.527 35.1964L207.095 36.5277C207.109 36.5518 207.121 36.577 207.131 36.6032C207.138 36.6252 207.143 36.6479 207.146 36.6709V36.7231C207.164 36.7335 207.167 36.7569 207.167 36.7673Z"
            fill="#484848" />
        <path d="M12.312 0V5.96854H5.86176V12.5363H3.05176e-05V0H12.312Z" fill="#7421B0" />
        <path d="M3.05176e-05 25.4764H5.86176V32.0415H12.312V38.01H3.05176e-05V25.4764Z"
            fill="#7421B0" />
        <path d="M25.0205 38.01V32.0415H31.4681V25.4764H37.3299V38.01H25.0205Z" fill="#7421B0" />
        <path d="M37.3299 12.5363H31.4681V5.96854H25.0205V0H37.3299V12.5363Z" fill="#7421B0" />
    </g>
    <defs>
        <clipPath id="clip0_301_63">
            <rect width="250" height="39" fill="white" />
        </clipPath>
    </defs>
</svg>
    