<svg width="144" height="144" viewBox="0 0 144 144" fill="none" xmlns="http://www.w3.org/2000/svg">
    <g clip-path="url(#clip0_153_180)">
        <path
            d="M117.478 24.6895L104.778 9.61738C104.365 9.12739 103.897 8.74067 103.389 8.44514L103.391 8.44074L90.0703 0.66352C88.3114 -0.358208 86.0449 -0.206597 83.6697 1.1645L34.2323 29.707C28.8402 32.8205 24.4688 41.1723 24.4688 48.3618L24.4688 127.667C24.4688 131.702 25.8465 134.512 28.0075 135.653L40.9867 143.236L40.9944 143.241L41.1669 143.342C42.8786 144.33 45.1099 144.238 47.5511 142.829L109.689 106.953C115.081 103.841 119.452 95.4876 119.452 88.2993V31.3989C119.452 28.5655 118.759 26.21 117.478 24.6895Z"
            fill="#551981" />
        <path
            d="M112.501 107.775L49.4993 142.855C44.0322 145.898 39.6 142.667 39.6 135.637V58.0921C39.6 51.0611 44.0322 42.8956 49.4993 39.8512L99.624 11.9419C102.727 10.2144 105.65 10.4572 107.522 12.5982L120.398 27.336C121.697 28.8228 122.4 31.126 122.4 33.8965V89.5347C122.4 96.5636 117.968 104.731 112.501 107.775Z"
            fill="#7421B0" />
        <path
            d="M55.8 37.1969V70.4624C55.8 74.9173 60.6219 77.7013 64.4792 75.4743L92.9558 59.0333C96.2187 57.1492 98.2281 53.6676 98.2281 49.9004V12.5996L55.8 37.1969Z"
            fill="#E7DBFF" />
        <path
            d="M98.1 12.6L80.9067 2.75977L38.3907 27.3065L55.6719 37.1973L76.886 24.8986L98.1 12.6Z"
            fill="#C0A9F0" />
        <path d="M59.2031 40.1892V64.113L73.6304 55.7832V31.8594L59.2031 40.1892Z" fill="#7421B0" />
        <path
            d="M56.7795 89.9904L100.7 64.6329C102.874 63.3782 105.591 64.9471 105.591 67.4575V92.7249C105.591 96.3076 103.679 99.6188 100.577 101.41L56.6565 126.767C54.4823 128.022 51.7654 126.453 51.7654 123.944V98.6751C51.7654 95.0925 53.677 91.7823 56.7795 89.9904Z"
            fill="#E7DBFF" />
        <path
            d="M97.1884 80.7922L60.0513 102.36C58.7231 103.126 57.6464 102.312 57.6464 100.541C57.6464 98.7692 58.7231 96.7125 60.0513 95.9457L97.1884 74.3784C98.5166 73.6116 99.5944 74.4257 99.5944 76.1967C99.5944 77.9677 98.5166 80.0254 97.1884 80.7922Z"
            fill="#7421B0" />
        <path
            d="M97.1884 95.0715L60.0513 116.639C58.7231 117.406 57.6464 116.592 57.6464 114.821C57.6464 113.05 58.7231 110.992 60.0513 110.225L97.1884 88.6577C98.5166 87.8909 99.5944 88.705 99.5944 90.476C99.5944 92.247 98.5166 94.3047 97.1884 95.0715Z"
            fill="#7421B0" />
    </g>
    <defs>
        <clipPath id="clip0_153_180">
            <rect width="144" height="144" fill="white" />
        </clipPath>
    </defs>
</svg>
    